<mxfile host="app.diagrams.net" modified="2023-09-11T19:40:07.595Z" agent="Mozilla/5.0 (X11; Linux x86_64) AppleWebKit/537.36 (KHTML, like Gecko) Chrome/116.0.0.0 Safari/537.36" etag="2HaBpgZHRkLBDRrO3t64" version="21.5.0" type="google">
  <diagram id="P9UsSNbaVvl7Cm5bsl6U" name="Page-1">
    <mxGraphModel grid="1" page="1" gridSize="10" guides="1" tooltips="1" connect="1" arrows="1" fold="1" pageScale="1" pageWidth="850" pageHeight="1100" background="#ffffff" math="0" shadow="0">
      <root>
        <mxCell id="0" />
        <mxCell id="1" parent="0" />
        <mxCell id="9DIKxnrTDn-VduJ4_lhs-28" style="edgeStyle=orthogonalEdgeStyle;rounded=0;orthogonalLoop=1;jettySize=auto;html=1;entryX=0;entryY=0.5;entryDx=0;entryDy=0;" edge="1" parent="1">
          <mxGeometry relative="1" as="geometry">
            <mxPoint x="193.5" y="284.99" as="sourcePoint" />
            <mxPoint x="240" y="284.99" as="targetPoint" />
          </mxGeometry>
        </mxCell>
        <mxCell id="9DIKxnrTDn-VduJ4_lhs-29" style="edgeStyle=orthogonalEdgeStyle;rounded=0;orthogonalLoop=1;jettySize=auto;html=1;entryX=0;entryY=0.5;entryDx=0;entryDy=0;" edge="1" parent="1">
          <mxGeometry relative="1" as="geometry">
            <mxPoint x="400.81999999999994" y="285" as="sourcePoint" />
            <mxPoint x="430" y="284.99" as="targetPoint" />
          </mxGeometry>
        </mxCell>
        <mxCell id="9DIKxnrTDn-VduJ4_lhs-30" style="edgeStyle=orthogonalEdgeStyle;rounded=0;orthogonalLoop=1;jettySize=auto;html=1;exitX=0.746;exitY=0.5;exitDx=0;exitDy=0;exitPerimeter=0;" edge="1" parent="1">
          <mxGeometry relative="1" as="geometry">
            <mxPoint x="670" y="285" as="targetPoint" />
            <mxPoint x="549.97172" y="284.99" as="sourcePoint" />
          </mxGeometry>
        </mxCell>
        <mxCell id="9DIKxnrTDn-VduJ4_lhs-31" style="edgeStyle=orthogonalEdgeStyle;rounded=0;orthogonalLoop=1;jettySize=auto;html=1;entryX=0.003;entryY=0.398;entryDx=0;entryDy=0;entryPerimeter=0;" edge="1" parent="1">
          <mxGeometry relative="1" as="geometry">
            <Array as="points">
              <mxPoint x="591" y="118" />
            </Array>
            <mxPoint x="590.8199999999999" y="285" as="sourcePoint" />
            <mxPoint x="686.7909999999999" y="117.83367999999996" as="targetPoint" />
          </mxGeometry>
        </mxCell>
        <mxCell id="9DIKxnrTDn-VduJ4_lhs-32" style="edgeStyle=orthogonalEdgeStyle;rounded=0;orthogonalLoop=1;jettySize=auto;html=1;exitX=1;exitY=0.5;exitDx=0;exitDy=0;" edge="1" parent="1">
          <mxGeometry relative="1" as="geometry">
            <Array as="points">
              <mxPoint x="591" y="448" />
            </Array>
            <mxPoint x="680" y="447" as="targetPoint" />
            <mxPoint x="590.8199999999999" y="284.99" as="sourcePoint" />
          </mxGeometry>
        </mxCell>
        <mxCell id="9DIKxnrTDn-VduJ4_lhs-33" value="otel-collector" style="text;html=1;align=center;verticalAlign=middle;resizable=0;points=[];autosize=1;strokeColor=none;" vertex="1" parent="1">
          <mxGeometry x="456.21" y="330.4" width="80" height="20" as="geometry" />
        </mxCell>
        <mxCell id="9DIKxnrTDn-VduJ4_lhs-34" style="edgeStyle=orthogonalEdgeStyle;rounded=0;orthogonalLoop=1;jettySize=auto;html=1;" edge="1" parent="1">
          <mxGeometry relative="1" as="geometry">
            <Array as="points">
              <mxPoint x="860" y="285" />
              <mxPoint x="860" y="285" />
            </Array>
            <mxPoint x="800" y="285" as="sourcePoint" />
            <mxPoint x="950" y="285" as="targetPoint" />
          </mxGeometry>
        </mxCell>
        <mxCell id="9DIKxnrTDn-VduJ4_lhs-35" value="Jaeger&lt;br&gt;(for request traces)" style="text;html=1;align=center;verticalAlign=middle;resizable=0;points=[];autosize=1;strokeColor=none;" vertex="1" parent="1">
          <mxGeometry x="675.79" y="315.4" width="120" height="40" as="geometry" />
        </mxCell>
        <mxCell id="9DIKxnrTDn-VduJ4_lhs-36" style="edgeStyle=orthogonalEdgeStyle;rounded=0;orthogonalLoop=1;jettySize=auto;html=1;entryX=0;entryY=0.5;entryDx=0;entryDy=0;" edge="1" parent="1">
          <mxGeometry relative="1" as="geometry">
            <Array as="points">
              <mxPoint x="860" y="114" />
              <mxPoint x="860" y="285" />
            </Array>
            <mxPoint x="773.6800000000003" y="114" as="sourcePoint" />
            <mxPoint x="950" y="284.98" as="targetPoint" />
          </mxGeometry>
        </mxCell>
        <mxCell id="9DIKxnrTDn-VduJ4_lhs-37" value="Grafana Loki&lt;br&gt;(for logs)" style="text;html=1;align=center;verticalAlign=middle;resizable=0;points=[];autosize=1;strokeColor=none;" vertex="1" parent="1">
          <mxGeometry x="685.79" y="142" width="90" height="40" as="geometry" />
        </mxCell>
        <mxCell id="9DIKxnrTDn-VduJ4_lhs-38" value="VictoriaMetrics&lt;br&gt;(for metrics)" style="text;html=1;align=center;verticalAlign=middle;resizable=0;points=[];autosize=1;strokeColor=none;" vertex="1" parent="1">
          <mxGeometry x="685" y="473" width="100" height="40" as="geometry" />
        </mxCell>
        <mxCell id="9DIKxnrTDn-VduJ4_lhs-39" value="grafana&lt;br&gt;(all in one visualisations)" style="text;html=1;align=center;verticalAlign=middle;resizable=0;points=[];autosize=1;strokeColor=none;" vertex="1" parent="1">
          <mxGeometry x="948" y="309" width="150" height="40" as="geometry" />
        </mxCell>
        <mxCell id="9DIKxnrTDn-VduJ4_lhs-40" value="&lt;font color=&quot;#ffffff&quot;&gt;1&lt;/font&gt;" style="ellipse;whiteSpace=wrap;html=1;aspect=fixed;fillColor=#000000;" vertex="1" parent="1">
          <mxGeometry x="200" y="232" width="30" height="30" as="geometry" />
        </mxCell>
        <mxCell id="9DIKxnrTDn-VduJ4_lhs-41" value="&lt;font color=&quot;#ffffff&quot;&gt;2&lt;/font&gt;" style="ellipse;whiteSpace=wrap;html=1;aspect=fixed;fillColor=#000000;" vertex="1" parent="1">
          <mxGeometry x="400" y="232" width="30" height="30" as="geometry" />
        </mxCell>
        <mxCell id="9DIKxnrTDn-VduJ4_lhs-42" value="&lt;font color=&quot;#ffffff&quot;&gt;3&lt;/font&gt;" style="ellipse;whiteSpace=wrap;html=1;aspect=fixed;fillColor=#000000;" vertex="1" parent="1">
          <mxGeometry x="610" y="232" width="30" height="30" as="geometry" />
        </mxCell>
        <mxCell id="9DIKxnrTDn-VduJ4_lhs-43" value="&lt;font color=&quot;#ffffff&quot;&gt;5&lt;/font&gt;" style="ellipse;whiteSpace=wrap;html=1;aspect=fixed;fillColor=#000000;" vertex="1" parent="1">
          <mxGeometry x="890" y="232" width="30" height="30" as="geometry" />
        </mxCell>
        <mxCell id="9DIKxnrTDn-VduJ4_lhs-44" style="edgeStyle=orthogonalEdgeStyle;rounded=0;orthogonalLoop=1;jettySize=auto;html=1;entryX=0;entryY=0.5;entryDx=0;entryDy=0;" edge="1" parent="1">
          <mxGeometry relative="1" as="geometry">
            <Array as="points">
              <mxPoint x="860" y="441" />
              <mxPoint x="860" y="286" />
            </Array>
            <mxPoint x="800" y="441" as="sourcePoint" />
            <mxPoint x="950" y="285.98" as="targetPoint" />
          </mxGeometry>
        </mxCell>
        <mxCell id="9DIKxnrTDn-VduJ4_lhs-45" value="" style="shape=image;verticalLabelPosition=bottom;labelBackgroundColor=#ffffff;verticalAlign=top;aspect=fixed;imageAspect=0;image=data:image/png,iVBORw0KGgoAAAANSUhEUgAAATwAAACfCAMAAABTJJXAAAAAxlBMVEX////xWilBQEI+PT86OTs4NzkwLzH7+/vxVyM0MzYrKSzxWCbxVSAvLTDt7e1PTlDwSwDwUBTV1db09PTMzM1ZWVrm5ubxUhqvr6+Tk5R5eHmamprwTQn+8e2CgoPf39/2nodKSUv6yr795+HyYzX1mIBlZWZqaWr70cf97+v5va1dXV7839j4t6b0gGD1jnLyaT/zdVG9vb2oqKiAgIHzfFr1knjybkf3q5f5w7b2pZC2traXl5f6z8T72dDzf14XFRkhICNFpM5QAAANWUlEQVR4nO1daWOquhYVmWRQoWpRi/NUtc6ttdrTe/v//9RLgkISAoq359mWrE89GkKy3Dt7yE5OJsPBwcHBwcHBwcHBwcHBwcHBwcHBwcHBwcHBwcHBwcHBwcHBkQo0Pm49gp+LP4K1aNx6ED8UO8sQHIEL3zVouwKA4XZvPZAfiD3iDrBncfaS4u3IHWDPfrr1YH4YepbgwzDUWw/nZ2FlBuQJTvvWw/lRCJQWwe3dekA/CX2DIM8Z3HpAPwh/SMETBOvWI/pB2JoUebnX7QT3lp/e9tvt7Gbj+8bozSitheyZtuvOJ2jte9o6lu2YpsVDNwqN2avthLjzYNrO6q03d03ve2d368F+L4zbjp1jM3eUQNvyVTr3euvh3haq2miovgvcaEcKHRNWaj0Y9WO3eBVMyzb7L9sJjMBmgpOAOQA7nVGv2p3brmPmkJwZ0BoIu3/cJFKHyEulvVUFl3ZGDCd2rePk+ejRTvB1SCl59oX0AI12HODhudCvC2m1Pbn1RG6Bi8gzTNsSVov2bPLnz+NsN5gvXZck0E1lin58njzTNheTHpHIU8fdgWFj/OVWaUz0qWd8EsOxt4/sRz8Gju3T56z+v+P+HsjFeiWOuYsJWxszwafPWfz/xvxt8Brjl+Ss/ZmIX905J0/HTWF8247WW/v1gqBrvDh51Nafvz/ab4a3SIvhXpg0fjM94TOE1BkNfHOM5O5iv7fx6qR12YtY9Kwkbu/Ci1OsCLv8e7FnLnpuspDBK8jILf/SGL8tnlh6a+8T9uKx5779lSF+Y6zCemvOE/cysJHNuKxxqfRbbEs3lFgxhCs2dObORaKnlt9HlU6nMmyWrxnst0PIZFxXSwa7yZ2J0lrPuiKLCJIiv99f857vhUdq1TP/iWza6852u92s+8RQO5SgcePqqApNTcpi0LTaf1DfdX0KUXm+vouvwIJMJtvswELtLhzLth3HsW3Xet2HaJoA/XdiLM1akRFnQOokSfToy7auHHNVUiQkwfr6yh6+CA0Bzw6YTF9X3QtEDi/nuMsZJTcvpmD0I9+yyUPCRE3ujJq1elHWvH8erhpyM++xD36Jq57/OjwRIRpzG3GCpZ98u2KbZDIA5vQjNyEfdDhXpVg9LnSFakdB7F0z4k0ePiprmqZvrnn+C7HD/WTWmq/O2ftphi0QQUXbiUzIH9B0JULONpKUla/R24IGOpM6tcPhUC1d8fxXYokzwzC1vX5k6sUg0gcNx2ArfeYeSplUpMxrYfrvVSvWBpAnjb6Fr9jArS0jN9KL3Yu0V5hTuHcinJUpMLPSNDzd61b7Eezt1iLngajBC0tOo+9zB7fQTJNKPpv9gJOxy3aw10BpxeyXTbcoZqX6V3X23zDAlTJcOOEXJedcc7VoD+arHLlRbvYDvhYm02KA2Wbz14YUaoh0SF6T1TJakyMDwphnLsELrpWhUruZfwpj1T1+13jcWngdkBkUST26LDf5Dljas6JSrtVqwHqUN+/gj9rG/3RY7FRGD3C1PHgtEHliBTWr1U7MFjajSrE4fIY/UQF8XoUflrw/yrVppzis3dGvLB3q02JxWj8AAlXQ9OHMEMMgvDyDziqNj9w5fcKuqnsHk74gDar2WUm9JlijlNDQKVR1WS9vtLwmA3x6i+Ehm/eiOe2z3gLOnfyJxBcKsigj5AuoYWuka8hplvLZdab1KSvotyqAP5r3RR11IutTwrQXmqdnFGWTUXVZ6ySWwjFuL0w69771dNqe0/32XjDv0PITAlsWeRUgKcVz46hqoJF2dH3RNApDRfRjOUlZ16Ss4pN3+hiR96AEcZ+Yr7eUo6AXgMgXRb+1qGFLx1qSg0hRqdzDMSYm7xG3F7Sb1vC+tFkOyD540LBP2t5lkFcAM5Nr58YByMuKXtAgKlBr70XpGER4s5c7WYw8UUNAktfMn+I+1FLqZDHy8D5E3Wdvo4v4MyjcSU4ekUqm6yZmSLzMF+aTs4A9/4hBg3HEqgXmpgVOSekuhNaRPDhzrVOpVAAlpY4Xv4nF+lDUjtLjkycOqxsEsOa9K4hbrTOqd06pB4I8SSuOQB8oKjnys9a9L7JDECkeRTAxeY+vRGxGJwW8TKkdkd9rB8/G1YaW86dZe+P+N09BH/nk5Z9P61IdTkkurqFFUA8dmSQPs7Z3n4hkL8HVqudD5Gkj2Kf6ADnWPKNQkOGvoTfRy+5rXqSclLyBSzjAtJfWQOzYkfvZwdkqcxv9krJCkFdWshTQTBF5mm/wIONZzc83qXUtirwpVOIgPbPOU+T5dn6tnFbTTBP+FoE23InJ1bbxSu3aGn2SPLQexiSWsSKrKOmEQyMlr5wXceDkiUO/VV2i3JuhxCYPsYyHyAeFJE/z/cRn0IV+d/pcx6zHnZKUvJ4QqgqlPJWJzbLAGIIFM6a+EQa2WOqpXKzgAOwhJiB5ii8Lnszg7nFBZpMHWdaq+PsC3mEvuILnjwOBwbFMuNnwkyTk9YRQzEqTh/Itbsx2bMO3GTm2UUFTgPxEWVv4m2vQuELy8oHygY9l0mmFnDDIg7qYJWYNOQrIw4gtQc7gu0ZgRBrp9EmJyGuEuQNqSz4+gKIZe74nyELHNJvG+Hk1+ehAQ/J0P+3yIIf86rXGIg8JF5WK16LIE4+/SDE8oGkiP29F6yySnzHRxiMvrpeuv+q50YU+kCCNHWGo0GfT4KBJ8mBQIpMZrGDpxMmDfpD8TnZaEePJKwFZFUfkM+CFl5PXZlb4UOdpkZvnxHUT6G3MGaqY2Hbtq1iYPO1i8qg14SLyhuQzSchjFgqE1jdUQxUreap/tC8iDYoA/V2dKXrQtffMHkkeXMDzl6htifHDyFeo7TCB2kbU91Dig2qo4s80+jmZuANoh8DDIvEM5ilO0Z8kedAZpATqmW0wIP1kZjTaYJzIQ7aHMBilBAbjLeL8BVVogeTKjq1anJ+WzlBCBgdc2aRR6OONEvhbJHmqQnhoAPca21VBC2qMq8IiD/6Y0tWuSvgc7UlvyXYwURqnjzh5/ZhXw1UvK0+ptGYN+bdHU0mShxY9Qh1HEU7yHeoEWx7XpJPMIq+kUE5yK4GTHK5PiVj0kN5G7IJ78OuEYsnLoMBSyuJ7Fq0h2gQ7jZgiD01HC6TjOTI8g6yKHV8Jy1R4xiIvU4O9yT57rSRZlReWm+LpLRWjLpzIpApCYDBi9rshmui3zU8PHj+F9QjlhEQvIZcJkefNT6uU4YTUdTE6MdDSUWLgwUsMPCvZC8grZfHEwIOSJDGwiyqmDQWyY1gmEFOuF5yCiV3zMqekG6wYGNaHHclLX8rBbiRNHtpxy4pKtlIfiQqdksJXrCrqWZaLo3oxnJJikucpO0xjDeuVpCmpfaTe0jFqF/LstqM6ClKpxvLMqzf6KbkpHdObol4PVsEQeaWjtB3TlWQylFjuN59EYpNMhrLJy5SpZKjYudxViZQ9w6RaopSnvQpynMQbsFSquTxT1nc/VPAqKSBU+BIYIi+j1k8VKUhIyu9yBHmZA5ZSh2l4+Tx5mbuOhg1lep+AvMzEitjKDqVHUMucu/A2zx4XhE3ps3fRIlAe6YrsbbpoeqdKjLWqy/InVVJQrnh7N6B18x4Y5+MGUEeWFTKc9TdzZL1YztzrwQaQjFWzlDRZzvuhnPqgKMdNI7GaUaUkG0BPEUUUhjGmWn4sYZUPPATe79u2bWGp+idC/e2YjOhp/Ov30bQyHT1v6CKVcrNWaxbo9nfvw0qlUq/CLw6gAXrq/bS1iHdcrYOG3v5ioXncuyzBPgOPBG4vNjFpV9fNaaUyRS3gd1SIHAd1yxY+hl83c1wnZxiwYsBa4Y4LdWmNlaI74j5WLos+1jmCx8Gq7zjCakDQQx8Uj3Nqfh+6Szd8bttwmAKkNhq0RZjT/mJsWe3vw8dWsByKQMOhlz02woFK6i7YUz9mCyrWzZ3zOhDIclyP9txfH+73Q8Om68YukD1WLtq6TGZ/F2ZUYjmXO7t6LRiuTi6dFyPRYmRYZ86MzsN5fMO95HzzL0QvVO5uv8QwMX6l5c4w3WUqr1eBmIRMp+nuo+KVtxwhqDnLsvqD1B23xcDYT3OcHcsAAOeaENPccpxGO0HgJWwBDMeev5Fui/r2Dx3WWam80IcC4+gtTAhYy/bkYwzii8b4cfbi2qGwIoW3goQRddUFkD/XMh3HcV3GmQwn+dHm34hQqHoJzNTdLMBGONy6gLs+v+cX4uLL9Dh3YTwmv8aROHmWakwSS56bvkt8orBLeMFvSm+7ZCMxefy/KAgwS0qee77P1KBLr3lGeH8DR9qvhCfwRO+FCdu+a0cTyP9bFgxjQm1z1nycUZ9mc9ty4XUqphmKadN5I3wEsG0g01r56bnGR3e2by8WA5K9FF7VGIfjgXnDtN05K7M5I6qDUrfNGI8Py7Zd115u3yLiBqK2Kua0WSoxmUy6H3GczII8aPRZSI4IPC2PGfj03XH5FZgZMJVs8P977zp0567L/7vWq6E+pu86bg4ODg4ODg4ODg4ODg4ODg4ODg4ODg4ODg4ODg4ODg4ODg6Ob4v/ASMKDrEJm1HKAAAAAElFTkSuQmCC;" vertex="1" parent="1">
          <mxGeometry x="950" y="242.94000000000005" width="146" height="73.46" as="geometry" />
        </mxCell>
        <mxCell id="9DIKxnrTDn-VduJ4_lhs-46" value="" style="shape=image;verticalLabelPosition=bottom;labelBackgroundColor=#ffffff;verticalAlign=top;aspect=fixed;imageAspect=0;image=data:image/png,iVBORw0KGgoAAAANSUhEUgAABk4AAAOwCAYAAAB4b4iqAAAACXBIWXMAABYlAAAWJQFJUiTwAAAgAElEQVR4nOzdTW5bSZaw4XCiJxzZGyCsXoHdK7B6LiDVgAAOzVxBuVaQrhWUcgVJDwkIKBnQvOwdyCsoGVzAZ4041IebFczyj34o8vLyRMTzAIS7gSo5GFcSUHx9Ip7c3NwkAAAAAAAAUvrJHgAAAAAAAPybcAIAAAAAAJAJJwAAAAAAAJlwAgAAAAAAkP2XjQAAACCi5Xz8MqV0mFLq/jxIKT1LKb34aqmfUkpfUkqXq9dosrj0MAEA2MaTm5sbGwgAAEAIy/m4CyRvUkrHKaXnG6zpc0rpPKV0OposrjxVAAAeSzgBAABg75bzcTdZ8jal9KrHtbzvvqYpFAAAHkM4AQAAYG+W83F3/NZpSun1DtfwWw4oXzxpAAAeIpwAAACwF8v5uDuOa5ZSejrA398d4TUdTRYfPG0AAO7zk90BAABgaMv5uDuW6x8DRZOU70v553I+nnrYAADcx8QJAAAAg1rOx7MdH831kN9Gk8UbTx0AgNsIJwAAAAwmQDRZeTeaLEyfAADwA0d1AQAAMIhA0aTzOq8HAAC+IZwAAACwc8GiyYp4AgDAD4QTAAAAdipoNFkRTwAA+IZwAgAAwM4EjyYr4gkAAH8STgAAANiJQqLJingCAMAfhBMAAAB6V1g0WRFPAAAQTgAAAOhXodFkRTwBAGiccAIAAEBvCo8mK+IJAEDDhBMAAAB6UUk0WRFPAAAaJZwAAACwtcqiyYp4AgDQIOEEAACArVQaTVbEEwCAxggnAAAAbKzyaLIingAANEQ4AQAAYCONRJMV8QQAoBHCCQAAAI/WWDRZEU8AABognAAAAPAojUaTFfEEAKBywgkAAABrazyarIgnAAAVE04AAABYi2jyDfEEAKBSwgkAAAAPEk1uJZ4AAFRIOAEAAOBeosm9xBMAgMoIJwAAANxJNFmLeAIAUBHhBAAAgFuJJo8ingAAVEI4AQAA4AeiyUbEEwCACggnAAAAfEM02Yp4AgBQOOEEAACAP4kmvRBPAAAKJpwAAADwB9GkV+IJAEChhBMAAABEk90QTwAACiScAAAANE402SnxBACgMMIJAABAw0STQYgnAAAFEU4AAAAaJZoMSjwBACiEcAIAANAg0WQvxBMAgAIIJwAAAI0RTfZKPAEACE44AQAAaIhoEoJ4AgAQmHACAADQCNEkFPEEACAo4QQAAKABoklI4gkAQEDCCQAAQOVEk9DEEwCAYIQTAACAiokmRRBPAAACEU4AAAAqJZoURTwBAAhCOAEAAKiQaFIk8QQAIADhBAAAoDKiSdHEEwCAPRNOAAAAKiKaVEE8AQDYI+EEAACgEqJJVcQTAIA9EU4AAAAqIJpUSTwBANgD4QQAAKBwoknVxBMAgIEJJwAAAAUTTZogngAADEg4AQAAKJRo0hTxBABgIMIJAABAgZbz8RvRpDniCQDAAJ7c3NzYZwAAgIIs5+PDlNI/PbNmvRtNFtPWNwEAYFeEEwAAgIIs5+NnKaWrlNJTz61p4gkAwI44qgsAAKAsb0UTHNsFALA7Jk4AAAAKsZyPD1JK//K8+IrJEwCAnpk4AQAAKMdbz4rvmDwBAOiZiRMAAIACmDbhASZPAAB6YuIEAACgDMeeE/cweQIA0BPhBAAAoAymCXiIeAIA0ANHdQEAAAS3nI+fpZT+n+fEmhzbBQCwBRMnAAAA8R16RjyCyRMAgC0IJwAAAPG99Ix4JPEEAGBDwgkAAEB8B54RGxBPAAA2IJwAAADEJ5ywKfEEAOCRhBMAAACom3gCAPAIwgkAAADUTzwBAFiTcAIAAABtEE8AANYgnAAAAEA7xBMAgAcIJwAAAPFdekb0SDwBALiHcAIAABDflWdEz8QTAIA7CCcAAADxmThhF8QTAIBbPLm5ubEvAAAAwS3nY//jjV15N5ospnYXAODfTJwAAACU4b3nxI6YPAEA+IpwAgAAUIZzz4kdEk8AADJHdQEAABRiOR9/SSk99bzYIcd2AQDNM3ECAABQjlPPih0zeQIANE84AQAAKEcXTq49L3ZMPAEAmiacAAAAFGI0WXRHdb3xvBiAeAIANMsdJwAAAIVZzscfUkqvPDcG4M4TAKA5Jk4AAADKc+zILgZi8gQAaI5wAgAAUJh8ZNeheMJAxBMAoCnCCQAAQIFGk8VlnjyBIYgnAEAzhBMAAIBCjSaL7q6TXzw/BiKeAABNEE4AAAAKNposZuIJAxJPAIDqCScAAACFE08YmHgCAFRNOAEAAKiAeMLAxBMAoFrCCQAAQCXEEwYmngAAVRJOAAAAKiKeMDDxBACojnACAABQGfGEgYknAEBVhBMAAIAKiScMTDwBAKohnAAAAFRKPGFg4gkAUAXhBAAAoGLiCQMTTwCA4gknAAAAlRNPGJh4AgAUTTgBAABogHjCwMQTAKBYwgkAAEAjxBMGJp4AAEUSTgAAABoinjAw8QQAKI5wAgAA0BjxhIGJJwBAUYQTAACABoknDEw8AQCKIZwAAAA0SjxhYOIJAFAE4QQAAKBh4gkDE08AgPCEEwAAgMaJJwxMPAEAQhNOAAAAEE8YmngCAIQlnAAAAPAH8YSBiScAQEjCCQAAAH8STxiYeAIAhCOcAAAA8A3xhIGJJwBAKMIJAAAAPxBPGJh4AgCEIZwAAABwK/GEgYknAEAIwgkAAAB3Ek8YmHgCAOydcAIAAMC9xBMGJp4AAHslnAAAAPAg8YSBiScAwN4IJwAAAKxFPGFg4gkAsBfCCQAAAGsTTxiYeAIADE44AQAA4FHEEwYmngAAgxJOAAAAeDTxhIGJJwDAYIQTAAAANiKeMDDxBAAYhHACAADAxsQTBiaeAAA7J5wAAACwFfGEgYknAMBOCScAAABsTTxhYOIJALAzwgkAAAC9EE8YmHgCAOyEcAIAAEBvxBMGJp4AAL0TTgAAAOiVeMLAxBMAoFfCCQAAAL0TTxiYeAIA9EY4AQAAYCfEEwYmngAAvRBOAAAA2BnxhIGJJwDA1oQTAAAAdko8YWDiCQCwFeEEAACAnRNPGJh4AgBsTDgBAABgEOIJAxNPAICNPLm5ubFzAAAAO3Y0PTtMKXWvg/y6zWVK6Sql9OFidnJZ6zNZzsfTlNLvAZZCG96NJoupZw0ArEs4AQAA2JGj6Vn3Ye1xSunnDf6G65TSeUppdjE7+VDbMxJPGJh4AgCsTTgBAADo0dH07FlK6U1+Pe3pK39KKZ1ezE6qOnZIPGFg4gkAsBbhBAAAoCd5wuS0x2DyvY9dkKnpGC/xhIGJJwDAg4QTAACALeUpk+5YrVcD7eXfLmYnb2t5buIJAxNPAIB7CScAAABbOJqevewuc9/hlMlduumT44vZyZcanp94wsDEEwDgTsIJAADAhvYYTVa6u08OxRPYiHgCANzqJ9sCAADweAGiSedFt4Z8VFjxRpNFd/n9LzW8F4rwejkfzzwqAOB7wgkAAMAjBYkmK+IJbE48AQB+IJwAAAA8QrBosiKewObEEwDgG8IJAADAmoJGkxXxBDYnngAAfxJOAAAA1hA8mqyIJ7A58QQA+INwAgAA8IBCosmKeAKbE08AAOEEAADgPoVFkxXxBDYnngBA44QTAACAOxQaTVbEE9iceAIADRNOAAAAblF4NFkRT2Bz4gkANEo4AQAA+E4l0WRFPIHNiScA0CDhBAAA4CuVRZMV8QQ2J54AQGOEEwAAgKzSaLIinsDmxBMAaIhwAgAAUH80WRFPYHPiCQA0QjgBAACa10g0WRFPYHPiCQA0QDgBAACa1lg0WRFPYHPiCQBUTjgBAACa1Wg0WRFPYHPiCQBUTDgBAACa1Hg0WRFPYHPiCQBUSjgBAACaI5p8QzyBzYknAFAh4QQAAGiKaHIr8QQ2J54AQGWEEwAAoBmiyb3EE9iceAIAFRFOAACAJogmaxFPYHPiCQBUQjgBAACqJ5o8ingCmxNPAKACwgkAAFA10WQj4glsTjwBgMIJJwAAQLVEk62IJ7A58QQACiacAAAAVRJNeiGewObEEwAolHACAABURzTplXgCmxNPAKBAwgkAAFAV0WQnxBPYnHgCAIURTgAAgGqIJjslnsDmxBMAKIhwAgAAVEE0GYR4ApsTTwCgEMIJAABQPNFkUOIJbE48AYACCCcAAEDRRJO9EE9gc+IJAAQnnAAAAMUSTfZKPIHNiScAEJhwAgAAFEk0CUE8gc2JJwAQlHACAAAURzQJRTyBzYknABCQcAIAABRFNAlJPIHNiScAEIxwAgAAFEM0CU08gc2JJwAQiHACAAAUQTQpgngCmxNPACAI4QQAAAhPNCmKeAKbE08AIADhBAAACE00KZJ4ApsTTwBgz4QTAAAgLNGkaOIJbE48AYA9Ek4AAICQRJMqiCewOfEEAPZEOAEAAMIRTaoinsDmxBMA2APhBAAACEU0qZJ4ApsTTwBgYMIJAAAQhmhSNfEENieeAMCAhBMAACAE0aQJ4glsTjwBgIEIJwAAwN6JJk0RT2Bz4gkADEA4AQAA9ko0aZJ4ApsTTwBgx4QTAABgb0STpoknsLkunryxfwCwG09ubm5sLQAAMDjRhOxTSunwYnbypYYNWc7H05TS7wGWQht+ydEOAOiRcAIAAAxONOE74gls5rr72RlNFpf2DwD646guAABgUKIJt3BsF2ym+z1q4gQAeiacAAAAgxFNuId4Apt54b4TAOiXo7oAAIBBiCasybFd8HjdkV0Ho8miip8bANg3EycAAMDOiSY8gskTeLzud+vUvgFAP4QTAABgp0QTNiCewOM5rgsAeiKcAAAAOyOasAXxBB7n+XI+fmnPAGB7wgkAALATogk9EE/gcRzXBQA9EE4AAIDeiSb0SDyB9R3aKwDYnnACAAD0SjRhB8QTWM8L+wQA2xNOAACA3ogm7JB4AmtYzsemTgBgS8IJAADQC9GEAYgn8LAqfj4AYJ+EEwAAYGuiCQMST+B+L+0PAGxHOAEAALYimrAH4gkAADsjnAAAABsTTdgj8QQAgJ0QTgAAgI2IJgQgngAA0DvhBAAAeDTRhEDEE/jWpf0AgO0IJwAAwKOIJgQknsB/fLEXALAd4QQAAFibaEJg4gn8m4kTANiScAIAAKxFNKEA4gmt+zyaLEycAMCWhBMAAOBBogkFEU9o2QdPHwC2J5wAAAD3Ek0okHhCq849eQDY3pObmxvbCAAA3Eo0oXCfUkqHF7OTKo4uWs7H05TS7wGWQkzXo8miilgIAPtm4gQAALiVaEIFTJ7QklNPGwD6IZwAAAA/EE2oiHhCC66FEwDoj3ACAAB8QzShQuIJtTsdTRZVHEkHABEIJwAAwJ9EEyomnlCrz6ZNAKBfwgkAAPAH0YQGiCfUaGraBAD6JZwAAACiCS0RT6jJX0eTxQdPFAD69eTm5saWAgBAw0QTGvUppXR4MTup4l/qL+fjaUrp9wBLYTjvRpPF1H4DQP9MnAAAQMNEExpm8oSSiSYAsEPCCQAANEo0AfGEIokmALBjwgkAADRINIE/iSeURDQBgAEIJwAA0BjRBH4gnlAC0QQABiKcAABAQ0QTuJN4QmSiCQAMSDgBAIBGiCbwIPGEiEQTABiYcAIAAA0QTWBt4gmRiCYAsAfCCQAAVE40gUcTT4hANAGAPRFOAACgYqIJbEw8YZ9EEwDYI+EEAAAqJZrA1sQT9kE0AYA9E04AAKBCogn0RjxhSKIJAAQgnAAAQGVEE+ideMIQRBMACEI4AQCAiogmsDPiCbskmgBAIMIJAABUQjSBnRNP2AXRBACCEU4AAKACogkMRjyhT6IJAAQknAAAQOFEExiceEIfRBMACEo4AQCAgokmsDfiCdsQTQAgMOEEAAAKJZrA3oknbEI0AYDghBMAACiQaAJhiCc8hmgCAAUQTgAAoDCiCYQjnrAO0QQACiGcAABAQUQTCEs84T6iCQAURDgBAIBCiCYQnnjCbUQTACiMcAIAAAUQTaAY4glfE00AoEBPbm5uPDcAAAjsaHp2kFK6FE2gKJ9SSocXs5MvNTy25Xzcffj/e4CllEQ0AYBCmTgBAID4zkUTKI7Jk7aJJgBQMOEEAAACO5qevc0fwALlEU/aJJoAQOEc1QUAAEE5oguq4diudogmAFABEycAABDXW9EEqmDypA2iCQBUwsQJAAAElKdN/uXZQFVMntRLNAGAipg4AQCAmHwAB/UxeVIn0QQAKiOcAABATD6EgzqJJ3URTQCgQsIJAAAEczQ9e5lSeu65QLXEkzqIJgBQKeEEAADiOfRMoHriSdlEEwComHACAADxCCfQBvGkTKIJAFROOAEAgHgOPBNohnhSFtEEABognAAAQDwvPBNoinhSBtEEABohnAAAAMD+iSexiSYA0BDhBAAAAGIQT2ISTQCgMcIJAAAAxCGexCKaAECDhBMAAACIRTyJQTQBgEYJJwAAABCPeLJfogkANEw4AQCAeD55JoB4sjeiCQA0TjgBAIB4rjwTIBNPhiWaAADCCQAABPTBQwG+Ip4MQzQBAP4gnAAAQDzCCfA98WS3RBMA4E9Pbm5u7AYAAARzND3rjut67rkA3+nuQDq8mJ18qWFjlvNxFyt+3/MyRBMA4BsmTgAAIKZzzwW4RY2TJ/+TUrre0xJEEwDgB8IJAADEdOq5AHd4UdPviNFkcdlN0eRpmiH9VTQBAG4jnAAAQEAXs5PuqK53ng1wh9dH07PjWjbnq3jy2wB/XRdo/mc0WQjUAMCt3HECAABBHU3PDlJK//J8gDt0x1sd1HLfycpyPu4CytuU0quev3S3X6ejyeJtz18XAKiMiRMAAAgqT538zfMB7vC0xmP9RpPFh9Fk0cWT/00pve/hS37ujuXqIpNoAgCsw8QJAAAEli+A/pDvNAC4zX/n0Fql5Xzc/R48zkd5da/na7zPj/l353k+BgwAYG3CCQAABHc0PXuZPwB86lkBt/jtYnbypqWNycd53eZqNFlUG5EAgGEIJwAAUIB8CfQ/PCvgFtcXs5NnNgYAoB/uOAEAgAJczE7OU0q/eFbALZ7muAoAQA+EEwAAKMTF7GQmngB3EE4AAHoinAAAQEHEE+AOL20MAEA/hBMAACiMeALc4oVNAQDoh3ACAAAFEk+A7x1Nzw5tCgDA9oQTAAAolHgCAADQP+EEAAAKJp4AXzmwGQAA2xNOAACgcOIJkAknAAA9EE4AAKAC4gkAAEA/hBMAAKiEeALN+9D6BgAA9EE4AQCAiognAAAA2xFOAACgMuIJNOvKowcA2N6Tm5sb2wgAABU6mp5NU0q/e7bQhOuL2ckzjxoAYHsmTgAAoFImT6Ap7jcBAOiJcAIAABUTT6AZwgkAQE+EEwAAqJx4Ak0495gBAPohnAAAQAPEE6ja+4vZiYvhAQB6IpwAAEAjxBOo1qlHCwDQH+EEAAAaIp5AdT5ezE7cbwIA0CPhBAAAGiOeQFXeepwAAP0STgAAoEHiCVThvWkTAID+CScAANAo8QSK9jmlNPUIAQD6J5wAAEDDxBMo0nVK6fhidvLF4wMA6J9wAgAAjRNPoDhvLmYnlx4bAMBuCCcAAIB4AuX4Jf+8AgCwI8IJAADwB/EEwhNNAAAGIJwAAAB/Ek8gLNEEAGAgwgkAAPAN8QTCEU0AAAYknAAAAD8QTyAM0QQAYGDCCQAAcCvxBPZONAEA2APhBAAAuJN4AnsjmgAA7IlwAgAA3Es8gcGJJgAAeyScAAAADxJPYDCiCQDAngknAADAWsQT2DnRBAAgAOEEAABYm3gCOyOaAAAEIZwAAACPIp5A70QTAIBAhBMAAODRxBPojWgCABCMcAIAAGxEPIGtiSYAAAEJJwAAwMbEE9iYaAIAEJRwAgAAbEU8gUcTTQAAAhNOAACArYknsDbRBAAguCc3NzeeEQAA0Iuj6dk0pfS73dzI55TS1Xf/xcuU0pc7vtjhd///s5TSiyDvhduJJgAABRBOAACAXoknt1pFkVUIWf15dTE7+T6WbO1oetZFlJf56xx+9ae4sj+iCQBAIYQTAACgd43Hk485jPwRSi5mJx8CrOkbR9OzLqoc5LhymP98GmiJtRFNAAAKIpwAAAA70Ug8+ZwjSRdHPlzMTi4DrGkjR9OzgxxRViHFZEo/RBMAgMIIJwAAsCNH07PV0Ugvb/kbLvMxTcV+0L6OCuPJ9SqSlB5KHpKP+zr+KqY8j73ikEQTAIACCScAANCT/C/2j/Pr1SO+ane003n32sV9F/tWQTz5nJ9PF0rOA6xnL/LxXqvvb9MoDxNNAAAKJZwAAMCW8mTJm5TSzz3s5fuU0mnEezG2UWA8WcWSWe1TQZv4KhJORZRbiSYAAAUTTgAAYEP5w+PZI6dL1tUFlDc1TaAUEE+uv4olVYWrXco/B29ySHGcl2gCAFA84QQAADZwND3rPij++473rvsg/+3F7OS0lmcUNJ58zAGsOyrtS4D1FOtoerY6yut1o1sgmgAAVEA4AQCAR8gXZs96OpZrXe8uZifTWp5TkHiymi45dRRX//IUyjS/WplCEU0AACohnAAAwJpyNPmwpzsdPqWUDmuZiNhjPOmCyWkOJqZLBpCf9dvKA4poAgBQEeEEAADWsOdosiKebO5zPvbMh9t7cjQ9O8wBZRd3Au2TaAIAUBnhBAAAHhAkmqyIJ48jmARTWUARTQAAKiScAADAPYJFkxXx5GGCSXAVBBTRBACgUsIJAADcIWg0WRFPbucOk8IUegeKaAIAUDHhBAAAbhE8mqyIJ996l1J6I5iU6Wh61sWTNymlp8HfgGgCAFA54QQAAL5TSDRZEU9S+piDyeWOlsVA8s9eNzH0OuieiyYAAA0QTgAA4CuFRZOVVuPJdb7H5HSAZTGgfP/JLNjxXaIJAEAjhBMAAMgKjSYrrcWT9ymlqWO56paP7/o1wJsUTQAAGiKcAABA+dFkpYV4cp2DyfmelsXAjqZnL/P0yb5+NkUTAIDGCCcAADSvkmiyUnM8MWXSsD1Nn4gmAAANEk4AAGhaZdFkpcZ48sxdJgx894loAgDQKOEEAIBmVRpNVqqKJ7CSf267oPHzDjdFNAEAaJhwAgBAkyqPJiviCdU6mp69SSn9fQfvTzQBAGiccAIAQHMaiSYr4gnVyhfHdz/LT3t6j6IJAADpJ1sAAEBLGosmKb/PD/l9Q1UuZieXKaWDHAi3JZoAAPAHEycAADSjwWjyNZMnVO1oetZFj9cbvkfRBACAP5k4AQCgCY1Hk2TyhNpdzE6mKaW/bvA2RRMAAL5h4gQAgOqJJt8weULVjqZnXUD5fc33KJoAAPAD4QQAgKqJJrcST6jampfGiyYAANzKUV0AAFRLNLmTY7uoWr40/jCldH3H+xRNAAC4k3ACAECVRJMHiSdU7Z54IpoAAHAv4QQAgOqIJmsTT6hajicH+Xi6JJoAALAOd5wAAFAV0WQj7jyhavn3Qvc9fu5JAwDwEOEEAIBqiCZbEU8AAIDmJUd1AQBQC9Fka47tAgAAmpeEEwAAaiCa9EY8AQAAmiecAABQNNGkd+IJAADQNHecAABQLNFkp9x5MpDlfHyY/6bVnwf5ta4P+T93tXqNJourGvcKAACGIJwAAFAk0WQQ4kmPlvPxy5TS96+nO/wrP+WQcpl/Vi5Hk4VnCQAADxBOAAAojmgyKPFkQzmUHH712mUkWden/LPzx0tIAQCAHwknAAAURTTZC/FkTcv5+DiltHpFCCUP6Z7tLKV07ngvAAD4N+EEAIBiiCZ7JZ7cocBYchcRBQCA5iXhBACAUogmIYgn2XI+7i5vn+bX8xCL6tf7LqKMJovzmt4UAACsQzgBACA80SSUpuPJcj4+zLHkdYDlDOFzSuk0R5TmgxkAAG0QTgAACE00Cam5eJKDyduU0qsAy9mH6xxQTgUUAABqJ5wAABCWaBJaE/FEMPmBgAIAQPV+8ogBAIhINAnvRX4+VeruMFnOx937+6do8o3u8vtfU0pXy/n4TaB1AQBAb4QTAADCEU2KUV04Wc7Hz5bzcTdR8S/B5F5dQPn7cj6+ylM5AABQDeEEAIBQRJNifM5HWFVjOR8fd5MUKaW/tP5wH+F5N5WznI/Pu+hUzKoBAOAe7jgBACAM0aQo/3sxO6li4iR/4D9LKf0cYDkl6+4/mY4mi/PWNwIAgLIJJwAAhCCaFOW3i9lJFfdb5CmTWT56in68zwHF5fEAABTJUV0AAOydaFKUKo7oyneZdMHkH6JJ737Ol8e7+wQAgCIJJwAA7JVoUpzpxeyk6EmC5Xz8Mn/PvQ6wnFo9zXefVHUPDgAAbXBUFwAAeyOaFOf9xezkuOQ34GiuvXB0FwAARTFxAgDAXogmxfnj4u+S30CefnA01/C6o7s+LOfjg9beOAAAZRJOAAAYnGhSpNOSj+jK95n8GmAprep+1i/zMWkAABCao7oAABiUaFKkzxezkyKnBbpL4FNK5ymlVwGWQ55cGk0W5/YCAICoTJwAADAY0aRYb0pceI4mH0STULpj0v6xnI+LPvYNAIC6mTgBAGAQokmxPl7MTg5LW/xX0cT3W1y/jCaLWeubAABAPCZOAADYOdGkaG9LW7xoUozfTZ4AABCRcAIAwE6JJkXrpk0+lPQGRJPiiCcAAIQjnAAAsDOiSfGKmzbJF8H7fitLF0+KOw4OAIB6CScAAOyEaFK8EqdNZi6CL9b5cj5+2fomAAAQg3ACAEDvRJMqFDVtspyPu/W+DrAUNvO0+52Rj1oDAIC9Ek4AAOiVaFKFoqZN8h0ZvwZYCtt5mn93AADAXgknAAD0RjSpRjHTJvl4p9MAS6EfL/KRawAAsDdPbm5u7D4AAFsTTarx+WJ2clDCm8nHOvmeq9Mvo8lCQAEAYC9MnAAAsDXRpCol3W1y6nuuWqcuiwcAYF+EEwAAtiKaVOU6pXRewhvK95q4DL5e3X0nJk4AANgL4QQAgI2JJtWZXXpxTjEAACAASURBVMxOvkR/U8v5+MC9Jk3o7jvxnAEAGJxwAgDARkSTKpXyIfUsTyRQv78s5+NDzxkAgCEJJwAAPJpoUqWPF7OTq+hvLB/R9SrAUhiOI7sAABiUcAIAwKOIJtUK/+H0cj5+5oiuJj1fzsdvW98EAACGI5wAALA20aRqJVwKf+qIrmb9mu+2AQCAnfsvWwwAwDpEk6q9i34p/HI+fplSeh1gKUO7Tildfvd3Pmv057ALZ8cB1gEAQOWEEwAAHiSaVK+UaZOafc4/Y5f5dTWaLB68cyZfnN79fHZh6bDy+19+7t7vaLL4EGAtAABU7MnNzY3nCwDAnUST6l1fzE6eRX6TOQ78M8BS+vYp3y1zvk4kWddyPj7OkxnHFR5t9nE0WRwGWAcAABUzcQIAwJ1EkyaYNhnWdX4/sz5jyddGk8X56rnmiPKmokmUV6ZOAADYNeEEAIBbiSbNCB1OlvPxtJLvwe4orrejyWI25F+6iij5YvW3ldwT8zYfSwYAADvxk20FAOB7oklTov/L/WmANWyjmzD562iyOBg6mnytm24ZTRbdXv53d9zVvtbRk1f5+DYAANgJ4QQAgG+IJk15fzE7+RL1DecPx0s+Yup9SqkLJmGOGssBpdvX/8tRp1RvC147AADBCScAAPxJNGlO9GmTNwHWsIkuSPzfaLI4Hk0WIcNUPsLrIMedEnVTJy8LXTsAAMEJJwAA/EE0aVLYcJLv5Pg5wFIe61OeMgl/6X4Xdbq4k1L6JcByNlFqWAMAIDjhBAAA0aRNny9mJ5eB33mJH4q/G00WL6NOmdwl373yPwUe3fV6OR8/C7AOAAAqI5wAADRONGmWS+H79Vu+fL1Io8mii2jd3SefC1t/sXsOAEBcwgkAQMNEk6ZFPqarOz7qaYClrOuX0WRR/LFROZ68zMeNlUI4AQCgd8IJAECjRJPmRZ44KenD8N/yUVdVyMeMHRd0bNcLl8QDANA34QQAoEGiSfOuL2YnVxE3Id9ZUcql8O9qmDT53miyuMrHdpUST0ydAADQK+EEAKAxogkppciXwh8HWMM6PpV8p8lD8rFdpby/Ur5nAAAohHACANAQ0YQs8jFdJXwIfp0nMqo2mizOU0p/K+A9Pl/OxwcB1gEAQCWEEwCARogmfCVyOCkhSBznu0CqN5os3qaUPhbwPk2dAADQG+EEAKABognfiXq/SRdNngZYyn26y+Ajh6ddmBZw34lwAgBAb4QTAIDKiSZ8J+zF8AVMm3Tx4G2AdQwqXxZ/GnyZrwKsAQCASggnAAAVE024ReSL4aOHkzetHNH1vXxk1+dYq/pWnlgCAICtCScAAJUSTbhD5HASeWrg82iymAVYxz5Fn7YRTgAA6IVwAgBQIdGEe4ScmChgWqC5I7q+l8NR5KkT4QQAgF4IJwAAlRFNeEDUi81fBljDXUyb/EfkgBT5ewgAgIIIJwAAFRFNWEPUOzoif+gd/WL0weSAdB10eU+X8/FBgHUAAFA44QQAoBKiCeu4mJ1EveMkcjgxbfKtyPshnAAAsDXhBACgAqIJFYj6vft+NFlEndLZl8jhxD0nAABsTTgBACicaMIjfIy4WcGPVzoPsIZQRpPFZeBL4k2cAACwNeEEAKBgogmVEE7K8yHoioUTAAC2JpwAABRKNGEDV0E3Ler9Jp8c03WnqEFJOAEAYGvCCQBAgUQTNhQ1nDwLsIbbRJ2qiCDq3jwPsAYAAAonnAAAFEY0oUJRw8llgDWElCdxQt5zspyPo34/AQBQCOEEAKAgogmVinpUV9QJnSgc/QYAQJWEEwCAQogm9MAExSOMJgtHdd3P/gAAUCXhBACgAKIJPXHROQAAwAOEEwCA4EQT2IuPtv1BJk4AAKiScAIAEJhoQiPcSUGffD8BALAV4QQAICjRhIY89bDp0TObCQDANoQTAICARBMAAADYD+EEACAY0QQAAAD2RzgBAAhENKFRnz14enRpMwEA2IZwAgAQhGhCw64CvvWDAGuILuoefQmwBgAACiacAAAEIJpAOM89kgeJSwAAVEk4AQDYM9EEYlrOx888mnvZHwAAqiScAADskWjCwKJ+0B31aKWXAdYQWdT9cVQXAABbEU4AAPZENGEPon7QHfUyb+Hkfq8iLmo0WbgcHgCArQgnAAB7IJpAEQ49ptst52NRCQCAagknAAADE03gB1EnBISTu0Xdm08B1gAAQOGEEwCAAYkm7NlB0AcQ9U6KpyYr7hQ1nLjfBACArQknAAADEU0IIGo4iXwnxXGANUT0c9B1ud8EAICtCScAAAMQTeBuo8mimxK4DrpF0wBrCGU5H0fek6sAawAAoHDCCQDAjokmBPIq8MOIOinw3HFdP4g8hWPiBACArQknAAA7JJrA2iJ/4P0mwBpCWM7HB4GP6UrCCQAAfRBOAAB2RDQhoqPpWdTpicgfeL9ezsfPAqwjgsgR6XM+9g0AALYinAAA7IBoQmBRA8CHAGu4T/NTJzkeRb7fJPr3EAAAhRBOAAB6JpoQ3GHE5Y0mi6vAF8R33pg6+SMePQ2wjrs4pgsAgF4IJwAAPRJNKEDkD/8jTwx0weA0wDr2It9t8mvwZZo4AQCgF8IJAEBPRBMKEfWOk1TAB9/dXSchJ3YGMAu+vuvRZGHiBACAXggnAAA9EE0oSORwch5gDQ9pbupkOR8fp5ReBVjKfUr43gEAoBDCCQDAlkQTCvP0aHp2EHHJ+Z6TzwGWcp8Xy/m4mXiSj+iKPm2SHNMFAECfhBMAgC2IJhTK1Ml2/pKnMFpwHvxC+BUTJwAA9EY4AQDYkGhCwSKHkxKmGzqz5XwceR+3tpyPZ4X8fns/miy+BFgHAACVEE4AADYgmlC4sBec5wu+ox/XlfIURhdPngVYS++W8/G0uwy/kOWaNgEAoFfCCQDAI4kmVCD6pEQpH4R3vwM+1BZPcjT5PcBS1iWcAADQK+EEAOARRBMq0V0Q77iuflQVTwqMJo7pAgCgd8IJAMCaRBMqE/24rk8BlrKuKuJJgdEkFRbZAAAohHACALAG0YQKRT+u6zTAGh6j+91wVeqF8fki+NKiyefRZOGYLgAAeiecAAA8QDShUsfB31b3gfh1gHU8xtM8eTItZcHdlMxyPv5Q0EXwXzNtAgDATggnAAAPOxVNqFDoe07yvRUlfjDexZPfl/PxefSju5bzcRfPrlJKrwIs57GuC5xKAgCgEMIJAMA9jqZnbwr9l9iwjrD3nGQlfzD+cz66K9z0yXI+PujCTkrpHzn0lOjcpfAAAOyKcAIAcIej6dlBSumt/aFioY/rGk0W3TTEuwBL2dRq+qQ7vmvvkSofy9X9TrvMYadkfjcDALAzwgkAwN3eFvyvsWEdr/IdPpHV8AF5dxTWP3NAGTxW5QmTt/lYrl8r+L32Lkc1AADYiSc3Nzd2FgDgO3na5F/2hQb8cjE7CX2XyHI+nlV2ZN7nfAzZ+S4DQI40xxUeN/jfwgkAALv0X3YXAOBWjoGhFccFXML+trIP/5+nlP7evZbz8acuoKSUPowmiw/bfNFusiTfW3OYn2uNE3OmTQAA2DkTJwAA38lHF105potGXF/MTqIf15XyUVO/BljKrn3Mv3+u8l0k912A/jKl9CyHkoMcZGp23b1Pl8IDALBrJk4AAH5U67/Uhts8PZqeHV/MTs6D7053tNWbBn42X+UXPzoVTQAAGILL4QEAfnRoT2jMNPrbzR+YvwmwFPbj82iycIQiAACDEE4AAH4knNCan/MRdaGNJotZPsqK9oSPewAA1EM4AQD4Sv7wuPZ7AuA2x4XsiqmT9rzf9uJ8AAB4DOEEAOBbL+0HjSoiSIwmi+7C9L8FWArDuDZtAgDA0IQTAACg8+JoelZEOMx3XXwKsBR2b+pCeAAAhiacAAAAKyUdg3WcpxGo12+jyeLc8wUAYGjCCQAAsHJcwiXx6d9TJ1fuO6laN1H0tvVNAABgP4QTAABg5WlJ90mMJotZSuldgKXQr2tHdAEAsE/CCQAA8LXSpjjeuO+kOm9Gk8Vl65sAAMD+CCcAAN/yL5xp3fOj6dlxKXuQpxLcd1KP3/IkEQAA7I1wAgDwlYvZiX/lDIVNneT7Tg7Fk+K9G00W7q0BAGDvhBMAgB99tCc07tXR9OywpC3IRzv50L1cnzw/AACiEE4AAH5k6oTWfSrx5yAf8fRLgKXwON3326HL4AEAiEI4AQD4kfP1adkfH2JfzE6K/BBbPCmOaAIAQDhPbm5uPBUAgO8cTc+6OxOe2xcaU3Q0+dpyPj5NKf0lzoq4RXcnzct8Rw0AAIRh4gQA4Han9oXGVBNN0r8nT7r7Mv4WYCncrvt+OxBNAACISDgBALjdLP9raGhBVdFkZTRZvHVsV0iO5wIAIDThBADgFvkD5Lf2hgZUGU1W3HkSjmgCAEB47jgBALjH0fTsMqX0wh5RqaqjydeW8/FhSuk8pfQ0zqqa8y6l9EY0AQAgOhMnAAD3mzqyi0o1E03SvydPPnTvN6X0OcByWvTbaLKYiiYAAJRAOAEAuMfF7KSbOHljj6hMU9FkZTRZdD/PL1NKH2OsqAldeP4lX9YPAABFcFQXAMAajqZn3eTJ7/aKCjQZTb63nI+7O4x+jbWq6nTfa9McrAAAoBjCCQDAmsQTKiCafMW9JzvlPhMAAIolnAAAPIJ4QsFEk1ss5+NnKaVZSunncIsr03WeMjlvfSMAACiXcAIA8EjiCQUSTR6wnI+Pc0AxfbK59zma+D4DAKBowgkAwAbEEwoimqwpT5+cppReF7HgOD7nY7lMmQAAUAXhBABgQ+IJBRBNNpDvPukuj39V3OKHdZ1D06kpEwAAaiKcAABsQTwhMNFkS8v5eJoDyvOi38hudJe/vx1NFlc1vjkAANomnAAAbEk8ISDRpEcCyjcEEwAAqiecAAD0QDwhENFkRxoPKIIJAADNEE4AAHoinhCAaDKA5Xx83F2G3sAdKKs7TGaCCQAALRFOAAB6JJ6wR6LJwJbz8UEOKMeVTaG8TymdjyaLWYC1AADA4IQTAICeiSfsgWiyZ3kKZfV6WuBb6L6HZjmYmC4BAKBpwgkAwA6IJwxINAlmOR8f5oDS/fki6DK7Y7g+dKGk+1MsAQCA/xBOAAB2RDxhAKJJcPk4ry6gvNxzSFmFksscSj4Us4kAADAw4QQAYIfEE3ZINClUnkg5yK/u/37WY1C5znHkKr+6QHJlogQAANYnnAAA7Jh4wg6IJpXKUWVlFVfu8vXUiDgCAAA9EU4AAAYgntAj0QQAAGCHfrK5AAC7dzE7maWUfrHVbEk0AQAA2DHhBABgIOIJWxJNAAAABiCcAAAMSDxhQ6IJAADAQIQTAICBiSc8kmgCAAAwIOEEAGAPxBPWJJoAAAAMTDgBANgT8YQHiCYAAAB7IJwAAOyReMIdRBMAAIA9EU4AAPZMPOE7ogkAAMAeCScAAAGIJ2SiCQAAwJ4JJwAAQYgnzRNNAAAAAhBOAAACEU+aJZoAAAAEIZwAAAQjnjRHNAEAAAhEOAEACEg8aYZoAgAAEIxwAgAQlHhSPdHk/7N3P7lxW1nfgNmNnmgkfwsoWL0CqVdg9VyA3YAADV1ZQZQVRFlBlBW4PCxAQMuA5pFXEGkFbUMLeKNRDf2B9qFTlvWvSiTvveTzAILz9ptYrCrWJXl+954LAACQIcEJAEDGhCeDJTQBAADIlOAEACBzwpPBEZoAAABkTHACAFAA4clgCE0AAAAyJzgBACiE8KR4QhMAAIACCE4AAAoiPCmW0AQAAKAQghMAgMIIT4ojNAEAACiI4AQAoEDCk2IITQAAAAojOAEAKJTwJHtCEwAAgAIJTgAACiY8yZbQBAAAoFCCEwCAwglPsiM0AQAAKJjgBABgAIQn2RCaAAAAFE5wAgAwEMKT5IQmAAAAAyA4AQAYEOFJMkITAACAgRCcAAAMjPCkd0ITAACAAfnbp0+ffJ4AwKAt5pOdqqqe3XiNf24cXF0M+XXvTU+mVVW9yeBQhkxoAgAAMDCCEwBgcBbzyauqquqfOjDZfuD11YXv8/pn4+DqdGjvhfCkU0ITAACAARKcAACDsJhPtqqqOqyqqg4KNtd8TddVVR3XPxsHV4MphgtPOiE0AQAAGCjBCQBQtMV88iwCk59bfB2DC1CEJ60SmgAAAAyY4AQAKNZiPtmtqqreCP15R6/hY93yayh7oQhPWiE0AQAAGLi/+4ABgBIt5pM6BPi9w9Ckir/7j/hdxTub7dch0w9O+LUJTQAAAEZAcAIAFGcxn8x6XjnxRngyekITAACAkRCcAABFidDkdYJjFp6Ml9AEAABgRAQnAEAxEoYmDeHJ+AhNAAAARkZwAgAUIYPQpCE8GQ+hCQAAwAgJTgCA7GUUmjSEJ8MnNAEAABgpwQkAkLUMQ5OG8GS4hCYAAAAjJjgBALKVcWjSEJ4Mj9AEAABg5AQnAECWCghNGsKT4RCaAAAAIDgBAPJTUGjSEJ6UT2gCAADAZ4ITACArBYYmDeFJuYQmAAAAfCU4AQCyUXBo0hCelEdoAgAAwDcEJwBAFgYQmjSEJ+UQmgAAAPAdwQkAkNyAQpOG8CR/QhMAAABuJTgBAJIaYGjSEJ7kS2gCAADAnQQnAEAyAw5NGsKT/AhNAAAAuJfgBABIYgShSUN4kg+hCQAAAA8SnAAAvRtRaNIQnqQnNAEAAOBRBCcAQK9GGJo0hCfpCE0AAAB4NMEJANCbEYcmDeFJ/4QmAAAArERwAgD0QmjylfCkP0ITAAAAViY4AQA6JzT5jvCke0ITAAAA1iI4AQA6JTS5k/CkO0ITAAAA1iY4AQA6IzR5kPCkfUITAAAAnkRwAgB0QmjyaMKT9ghNAAAAeDLBCQDQOqHJyoQnTyc0AQAAoBWCEwCgVUKTtdXhyatCj/0bEZ78u6qq655+5VuhCQAAAG3526dPn7yZAEArhCZPVgcNOxsHVx8Kfx2f7U1PnlVVddzhOfGxqqrDs9n+aUd/PwAAACMkOAEAWiE0ac37jYOr3YG8ls/2pif16zmqqupFS3/ldQQyx1aZAAAA0DbBCQDwZEKT1v1n4+BqcKso9qYnW/UKkaqq6pZkz9f4K95VVXUarcAAAACgE4ITAOBJhCad+LhxcLU1wNf11d70ZKfel6RuTVZVVfNamxUpdQuupl3ZeVVVF/WfVpcAAADQB8EJACSwmE+2Ytb9bhSNt285issoHteF49Mc970QmnTq3xsHV+cDfn0AAACQJcEJAPRoMZ9Mq6qarrnXw/t6T4dcWjgJTTr3duPgajrw1wgAAADZEZwAQA8W88lubGZ928qSVdUBylHK1QhCk15cbxxcPRvB6wQAAICs/N3HAQDdWswndWDye0uhSRWrVX6Pv7d3QpPebEbgBgAAAPToH95sAOjGYj55FvuTtBWY3PTjYj6pN9Z+tXFw1cum2UKT3u3GOQQAAAD0xIoTAOhAD6FJo159ch6/r1NCkyS2RviaAQAAICnBCQB0o4/QpLHddXgiNElGcAIAAAA9E5wAQMti75G+QpNGZ+GJ0AQAAAAYE8EJALQoNvP+MdF72np4IjQBAAAAxkZwAgDtmiV+P1sLT4QmAAAAwBgJTgCgJYv5ZFpV1fMM3s8nhydCEwAAAGCsBCcA0J7DjN7LtcMToUlW/hz7GwAAAAB9E5wAQAsW88lWgg3hH7JyeCI0yc7F2N8AAAAA6JvgBADa8SrT9/HR4YnQJEvnY38DAAAAoG+CEwBoR67BSfWY8ERokqeNgyvBCQAAAPRMcAIA7djJ/H28MzwRmmTr3djfAAAAAEhBcAIA7dgs4H38LjwRmmTtdOxvAAAAAKTwt0+fPnnjAeCJFvNJSRfUy6qqdquqOhaaZOvjxsHV1tjfBAAAAEjhH951ABideuXJh0JWyYzV0djfAAAAAEhFqy4AGCehSb4uNw6uZmN/EwAAACAVwQkAQF6mPg8AAABIR3ACAO249j7Sgp82Dq4uvJEAAACQjuAEANqh2M1Tvd04uDr2LgIAAEBaghMAaMe595EnqEMTLboAAAAgA4ITAGjHqfeRNQlNAAAAICN/+/Tpk88DAFqwmE8+VFX13HvJCoQmAAAAkBkrTgCgPUfeS1YgNAEAAIAMWXECAC2y6oRHEpoAAABApqw4AYB2HXo/eYDQBAAAADImOAGAFm0cXNWbxL/1nnIHoQkAAABkTnACAO2rV51cel+5QWgCAAAABRCcAEDLNg6u/qyqald4whKhCQAAABRCcAIAHRCesERoAgAAAAURnABAR4QnCE0AAACgPIITAOiQ8GTUhCYAAABQIMEJAHRMeDJKQhMAAAAolOAEAHogPBkVoQkAAAAUTHACAD0RnoyC0AQAAAAKJzgBgB4JTwZNaAIAAAADIDgBgJ4JTwZJaAIAAAADITgBgASEJ4MiNAEAAIABEZwAQCLCk0EQmgAAAMDACE4AICHhSdGEJgAAADBAghMASEx4UiShCQAAAAyU4AQAMiA8KYrQBAAAAAZMcAIAmRCeFEFoAgAAAAMnOAGAjAhPsiY0AQAAgBEQnABAZoQnWRKaAAAAwEgITgAgQ8KTrAhNAAAAYEQEJwCQKeFJFoQmAAAAMDKCEwDImPAkKaEJAAAAjJDgBAAyJzxJQmgCAAAAIyU4AYACCE96JTQBAACAEROcAEAhhCe9EJoAAADAyAlOAKAgwpNOCU0AAAAAwQkAlEZ40gmhCQAAAPCZ4AQACiQ8aZXQBAAAAPhKcAIAhRKetEJoAgAAAHxDcAIABROePInQBAAAAPiO4AQACic8WYvQBAAAALiV4AQABkB4shKhCQAAAHAnwQkADITw5FGEJgAAAMC9BCcAMCDCk3sJTQAAAIAHCU4AYGCEJ7cSmgAAAACPIjgBgAESnnxDaAIAAAA8muAEAAZKePKZ0AQAAABYieAEAAZs5OGJ0AQAAABYmeAEAAZupOGJ0AQAAABYi+AEAEZgZOGJ0AQAAABYm+AEAEZiJOGJ0AQAAAB4EsEJAIzIwMMToQkAAADwZIITABiZAYcnO4v55FkGxwEAAAAUTHACACM00PBku6qqc+EJAAAA8BSCEwAYKeEJAAAAwPcEJwAwYsITAAAAgG8JTgBg5IQnAAAAAH8RnAAAwhMAAACAIDgBAD4TngAAAAAITgCAJcITAAAAYOwEJwDAN4QnAAAAwJgJTgCA7whPAAAAgLESnAAAtxKeAAAAAGMkOAEA7iQ8AQAAAMZGcAIA3Et4AgAAAIyJ4AQAeJDwBAAAABgLwQkA8CgDDk+OMzgOAAAAIBOCEwDg0QYanrxezCeHGRwHAAAAkIG/ffr0yecAAKwk2ludx4qNIbiuqmorgiEAAABgxKw4AQBWNsCVJ5tadgEAAACVFScAwFMMcOXJ/7PqBAAAAMbNihMAYG0DXHkyzeAYAAAAgIQEJwDAkwwsPBGcAAAAwMhp1QUAtGJAbbu06wIAAIARs+IEAGjFgFae7GRwDAAAAEAighMAoDUDCU92MzgGAAAAIBHBCQDQqgFuGA8AAACMiOAEAGid8AQAAAAoleAEAOiE8AQAAAAokeAEAOiM8AQAAAAojeAEAOiU8AQAAAAoieAEAOhcYeHJeQbHAAAAACQiOAEAelFQePIhg2MAAAAAEhGcAAC9KSA8udw4uBKcAAAAwIgJTgCAXmUenpxmcAwAAABAQoITAKB3GYcnswyOAQAAAEhIcAIAJJFhePJWmy4AAABAcAIAJJNZeHKUwTEAAAAAiQlOAICkMglPfrHaBAAAAKj97dOnTxkcBgAwdov55FlVVedVVW33/Fa83zi42h37+w8AAAB8YcUJAJCFRCtP6t/1yhkAAAAANAQnAEA2eg5P6t+xG78TAAAA4DPBCQCQlZ7CE6EJAAAAcCt7nAAA2VrMJ0dVVf3c8vHVG8Ef+dQBAACA21hxAgBkKwKOf1ZV9baFY6z/jn8KTQAAAID7WHECABRhMZ9sVVV1GJu5P3/kMX+squq0qqrjjYOrDz5pAAAA4CGCEwCgOBGi1Pug1H8+q6pqJ17Dh6Wfc2EJAAAAsCrBCQAAAAAAQLDHCQAAAAAAQBCcAAAAAAAABMEJAAAAAABAEJwAAAAAAAAEwQkAAAAAAEAQnAAAAAAAAATBCQAAAAAAQBCcAAAAAAAABMEJAAAAAABAEJwAAAAAAAAEwQkAAAAAAEAQnAAAAAAAAATBCQAAAAAAQBCcAAAAAAAABMEJAAAAAABAEJwAAAAAAAAEwQkAAAAAAEAQnAAAAAAAAATBCQAAAAAAQBCcAAAAAAAABMEJAAAAAABAEJwAAAAAAAAEwQkAAAAAAEAQnAAAAAAAAATBCQAAAAAAQBCcAAAAAAAABMEJAAAAAABAEJwAAAAAAAAEwQkAAAAAAEAQnAAAAAAAAATBCQAAAAAAQBCcAAAAAAAABMEJAAAAAABAEJwAAAAAAAAEwQkAAAAAAEAQnAAAAAAAAATBCQAAAAAAQBCcAAAAAAAABMEJAAAAAABAEJwAAAAAAAAEwQkAAAAAAEAQnAAAAAAAAATBCQAAAAAAQBCcAAAAAAAABMEJAAAAAABAEJwAAAAAAAAEwQkAAAAAAEAQnAAAAAAAAATBCQAAAAAAQBCcAAAAAAAABMEJAAAAAABAEJwAAAAAAAAEwQkAAAAAAEAQnAAAAAAAAATBCQAAAAAAQBCcAAAAAAAABMEJAAAAAABAEJwAAAAAAAAEwQkAAAAAAEAQnAAAAAAAAATBCQAAAAAAQBCcAAAAAAAABMEJAAAAAABAEJwAAAAAAAAEwQkAAAAAAEAQnAAAAAAAAATBCQAAAAAAQBCcAAAAAAAAhH94Ix5nMZ9sVVW1Ff/yTlVVz1b4z8/jzw8bB1cfUhw/AAzJ3vRkWlXV1Ic6Chdns/3Dsb8JY5b4++78AwCAERKc3LCYxw4LUQAAIABJREFUT3YiGKlDkt348/kT/9qfm39YzCf1Hx/rEKV+EGv+3Di4Or/3bwAAltXX5xfeERgF33cAAKBXow9OFvPJbgQkuz0+kD2Pn6+/LwKVy1id8vln4+Dqz56OBwAAAAAARq8aY3ASLbdeRVDyMoNDWrYdPz9WX461DlJmEaJcZHOUAAAAAAAwUKMITpbCkmkEE6Woj/XXeA11e6/TqqqO7ZMCAAAAAADdGHRwsphPphGY5LayZB3PYyXKj7ES5bgOUrTzAgAAAKBUe9OTo5SHfjbbT/r7gTwNLjhZzCfPqqo6jJ/NDA6pC/VKlDd1eLKYT+pVKEdWoQAAAABQoJ8TH7LgBPjO34fyltTtuBbzSb0fyP/FgDvU0GRZ/RpfV1X1vzpAiY3uAQAAAACANRUfnCwFJv+LEGGs6nZkvy/mk3MBCgAAAAAArKfY4KRuybWYT44FJt95EQHKLDbFBwAAAAAAHqnI4GQxn9T7l3yIzdK5XdPC6yj2fQEAAAAAAB5QVHBSt6BazCcXVVX9OpI9TNpQ7/dysZhPXpX/UgAAAAAAoFv/KOH9jRUTR1aYrO15VVX/Xcwn76qqmm4cXP1Z6OsAAAAAAIBOZb/iJDY6vxCatKLeQP6D1ScAAAAAAHC7rIOTen+OeqPzWDFBOzZj9cnM3icAAAAAAPCtLIOTuqC/mE/OY38OulFvHn++mE92vL8AAAAAAPBFdsFJFPI/VFX1IoPDGbrtCE+mY38jAAAAAACgyi04iQL+H9FOin7U7/WbxXxy7P0GAAAAAGDssglOonD/JoNDGasf7XsCAAAAAMDYZRGc1AX7unCfwaGMXbPvifAEAAAAAIBRShqcxCbwp1GwJw/bwhMAAAAAAMYqWXAShfnzqqpeOvuyIzwBAAAAAGCUkgQnS6HJttMuW8ITAAAAAABGJ9WKE6FJGYQnAAAAAACMSu/BSWwELzQph/AEAAAAAIDR6DU4idDERvDl2Y5VQgAAAAAAMGi9BSeL+eRQaFK07Qi+AAAAAABgsHoJThbzyauqqn51GhXvdQRgAAAAAAAwSJ0HJ4v5ZKeqKisVhuPXCMIAAAAAAGBwOg1OYkPxOjTZdOoMymwxn2yN/U0AAAAAAGB4/tHxKzqOjcUZljoIO62qasfnCkAi5wW+8VsZ7Pf2vsD37kMGxwAAAMCIdBacLOaTqc3gB63eLP5o4+DqaOxvBAD9O5vtn5cWAOxNT3YzuDc6P5vtu3YDAADAPTpp1RVtnI698YP382I+2R37mwAAAAAAwHB0tceJfU3GYxZ72QAAAAAAQPFab9W1mE8Oq6p64dQYjedVVdUtPw7H/kYAAAAAjNXe9KRu2z8t7eXvTU/6agE8O5vtz3r6XYO1Nz3Zif0jmz+3vN90odXgJFYe6Js9Pj8u5pPZxsHVxdjfiC5FW7StpYvDs/jZvuPXXldV1Xwm9Z9/xn4AHzYOrmy0W4DFfNJ8zk1LvOXWeFsRXC5b/syr2FD5Q3z29f9+sXFw9efY39ehimvwTpwnyzeP901meB9/NufKRYwRxnNY0970pPn+3Ry777tmVzfG8D+Xrt2fx++z2b7xm2T2pifPbhQnbhYpbrvWvF/65z+Xzu/6fvTPs9m+a82AxVi4s/Tz0LPLx7gXqZpnlvon9jQr2j0Fvp17OnUsvx/fPMudzfY9y/UsPsPmuawZD6s7nsmWLX+OH5Z/hnBu32Gr0MnUfR3zUD/3TsU15VV8B3dX6HL0pPd7b3ryZ0Ydlf7fEJ4H4p7y/zI4lNp/zmb7p/f9C22vODnWomu0Zks3D7QgiubNhWGdi/jm0n/X/Plz9eXvvo4LyOcfRdL0oujd3ATstPCZV7f9HfHZXyx99m7cChaBajNO3FeQvcvNMeKzG2PEqbAV7hab/i+P3+veC98cw18u/z/3piffjN8DLriQgSgSLp/X9xUG73LzPqQ5pz/fj+5NT+o/Lm+c1643hYpCyKul+5JVx8LnS+fZ13MnzpP3zT1JCYHb0vfn1ROuC7e9H81355v7NN+b9u1NT14tTUh6SkH91vO6+uvc/nhjDPRczpPsTU+OE9fmWlvhsXRdOVzzWbcN9Wv5MdHvvulVHE/pXmVy/NcPhSZVm8FJFG9et/X3UZztxXwy3Ti4SvYlXswnnxK+af9uowC9mE+24qLwas0H1MfajIfXl/F76xu2esCwcqhH8Xm/iqXMfd0INIW5+ufnxXxSxcPo6RgK5InHifcbB1e7j/j37rU0Tkw7nKywPEb8uphPLuMmTYjC6LVQHFzXN+N3FFzeNeO3FSk8VRQKm5++zuvt+Pn8HLk3PWnuSc8f8zBbsr3pyVFTCE/k320EsHHeTG+GvS1bHvs+xj3JLKfAIMKSaQ/PcdXN+7S96cnX+zQhynpuzGbv8ly+qQlWPv/OCMWa6/qgx0A6s+4kzLa0cV15Fs+7hxlMzhectC+X4ORR72WbK07G0KKrmRH1YWkw+K7t0VK7lGqpZcpOwoS0L8eL+eRUK6DVRfB4lPAC9zwuBj9GiFIPIMc+y/bF+DDtOSx5SPMw2hTIj6NA7vPPSIwThz0/zDXqc/XXOEfeRshqtjujEitLpplNFGoKZ2/2pifvopCo0MKjLZ3XfYYl9/l6TxoFxKZAbmJPZmIfg6MeQoKbnkfgVIco9T3JUcqwIN6HlLOhq+X7tHhPZlYlPk58fq8S3V/fZjPuM14vhSg+T0Zjb3pyGNeWLLoZ1fcfEU7nULt5WYdKA5gslct4219wUq80GOiG8F/T/mhp86iTM/695sL2zQVuMZ+8Wlq22/dNZtc246bRPjePFIXQ48xCta8PI1EgPTLD/OlilcBRASvz6nPxTROE+vzTi3PnOKMbjM8Pc4v5pF6pNHV+MGRLq0tSFAdX9TIeqL5OgLAKhdsUdF5vLoUol3FO2+A1sYSByW2aAnOvAUpms6Fvat6T+j7tUOj4vcw/v2XLIcrHOMeNgQxSrNqbZTrh/DhqJDkoetVJrFLNweVjr49/b+lgh1Yor2+8/rNxcPVs4+CqLgq1NvM6/q7DjYOruhD2r/hd12383Zk4jBn13KMuhC7mkzpU+z3zlUj1jdr/6s3/o3jLiupwLD7r/xXWznDT55/eYj45inMnl9Bk2Ys4P46N+wxNXVSJNjof4kGppMkuzQSID/VriAIRlH5eb8fKqg9RuKdndVFrb3pynum5U9+zXsT53ak4/z7EOJtz0b2+T/uj3u/AdeCLuh3X3vRkFpsS5/753fR8aQw0UZVBiVUmf2RcGzvNqG6bS/CwrqLadFVtBCex2mQIKyfqL8EvVVX9swlLuv6F9V4S9e+KVl6/DCRAaVadcIelQmhJq7SaAvqRAunjRDh2GuFY6SvyBCg9W8wnO4v55CJx7/PHqmcDX9THXMCxwoPi4a2EothDNpcDlLwPla4N6LxeLh6WXjwoRowhf2R+T7sZ7bsuYr+KVtVt7eq/O4Kjkr5DP0ao9OR99kq1FBqXNpHtNs/jPBciMwgRZv6a82uJFdy5tMJ9WXgYPr7gZCCrTX6rw4uNg6skLWnq1Sz17x5QgGLVyS2WVpmUUAi9y89RIPWgeof63M98lcBTvI7PXwGuQzEhIecZN7epH+L+WMwngnOKFUWxD/HwVnJh+abNpSLLaAtnYzXg87q+7vy3XgHRRZGcL6LgXNrzy3YEBa08r8R7cFxAp4D71N+X3yNAHZUbK4SGpAmRz6PFERQlxtaLgsLMnNpjFVmPi+tyDvei71ZpZ/yk4CSKpyWvNnkfK0wOc9gE+UaA8i718TyBVSc3xF4mFwPZC+jzg2q9mkJA9q2lz3loN+bLNmP/GysMOlCv6smof+o6fo3XAMW4URQb2v5zy5rC2UzbluGL8/p0BOf1iyiSe/ZoWRRjPxT6/LIZwdqTZuTHe3AeqzaG4NeY3T140ZbrvMAVQqtqWrKZ2EYx4j70vKQw+my2Xx/vxwwOpSq4XVdxq02qFlaclHqDWq/o+Gnj4Go3x01tI0CpT6j/FLz6xMNLiNnjvw/whu2l9jxfxCqTMRTdlm1bYdCeOIfOB9A+oIqN44UnFCFWYFwMqCj2GM1eAKO/fg9VnNcfBrjy9S6bURA+Fwq2IwKH8wE8v7xZNzyJ/660FcCP8Xro4UkEqUOZtPhYP1uBRwlKDE2WHGdyHKW268ohOLk+m+2v1HZt7eAkiqUlXoguq6qqA5NcTvg7xT4rW7EypjSbERiMWhTTS549/pCmPc9oP+sYC4c0E21Vv1p99DTx3p0P7OFOeEL2YnbmmALvZc9jhuro79WGZmn11JBnWN/lRezpoyXdE8S4MKRZ+iuHJxEsDPkZbpDhydJKu6G1JnysF2Pfz4YiHBccSGvXtaaYsJXDuLzyZ/iUFSclzjJ+F6HJRQbH8iix+qS+8L0t4HBvGvVM9CgajqWY/maMRdIIjEqdLdGmekbruY3jV7cUmgzxHBKekKVCe/Z35c1Y2rYM3dJ5PdaJHI3NaEknFFzDUmgyNI8KT5a+R0NYAfyQQYUnS23VxrLS7i7GQLIVk5aKHV9jX4xcarOltevKZUzqJziJQk9pH9Lbuv1VDnuZrGPj4Ko+yX4o7LC3x9rGKYqFY7jhXva5SDqWlQexQfrQe+auYlvrttUMPDRpvI7vCmRhqbAypvYdD6mLZ6daHJUrzuuxtaV5yJtYfcMjDTg0aRzf16JwqX3MmL5Hr4dQYI8VFiazfcvECLISG4MPYdLSSm2eOlRau64cMoTLs9n+ygsp1l1xkstO+I/1NoKHom0cXM0KDE9GN9Mh9nwYW2jSeB0rDwZdfIlgzEzl723G5y88ecBIQpPGz4v5RMsAklsKTRRWvvd55aDwpDxL5/UYW8495EeFw8cZQWhSxX3q7LZxrvCe+0/1puQ9r+LcHWt7wocMfj8byhBj7CDOxdgfwybxK4hrTA73qWudg+sGJyW1YBpEaNIoMDwZVXASrZt+zeBQUtoecngy0tVEqxCePE7JvV3XYR8ckloqLius3G1beFKWAW3g3SWFwwfE+Dj00KRRj3PfrIQdeWjSKPI7MpLA76mMgeRgNrB7lVy+U6V0giq2TVe1TnASPexLuakYVGjSiPDkpzyO5kH1JvGltXVbSxSK3bh9sZ3REsbWCE0eTXhyj8V8cjzC82gzwiLondBkJdvxXpG5AW7g3SWFwzssjY9j8mOzebbQ5Kvt2HugGEKTlRgDSSZadA1t76Fcvk+ltOvKoSb8LvaoWdk6K05KKYJfDjE0aWwcXB0XtGH8GIKTZwoN33kxpI2hhSYr2xxD27ZVxaq0sW7c+1rLLvomNFnLtgJL3ka2QqAtg9jLoWXPBjgL+LGayRxCk78c7k1PtnI5mPsITdZiDKR3UdQf3OS5s9n+h7oQn8GhVLnXW0tv01UNODi5rqpqDMWZumXaZQbH8ZAxBCdjfeh4yCA2hhaarE148q0tqy5G//rpkdDkSV6XNvt4LEa6QqAtb2LmK1+MrW3osjogvhCafGPzZhuzHMV3WGiyHmMgfTsc8B5suXRYyf07nUNt/jr2plnLSsFJFL9edPIy2vVq4+BqrSU4JYnXOI2gKGebI2jZoyhzt59Lbtc28s3+27CtWP7Vc2NFtR2rbqBTS5tQjv079xQ/K7DkZamtkPN6fbOSN8Ju2VCLWY8lNPne65xXncR314rIpzEG0osYS34e6rt9NtufZVKLzb1dVw7P/k+6bqy64qSEh6ffNg6uRjMLa+Pg6qKEmSEjWXXC3WaxP1JRIvAZ+2b/bXitWM4Ss9jpw6miWCtmpbRuGTqhSWs247y2GhZul+V9WnxnT42BT7YpfKInY3jms0n8PeIZIofnsV6Dk9zbX12PsSAT+528z+BQ7iM4GbfibtBilZSbyvYc2yye8LzkVWjkb296clzICukSKLDkY8xtldq2LcSHO73KNFg8tUqqNdtxrwSdiIL5GLp25PI9yvXZOofjujyb7V885S8YWnByOIYWXXc4zPKo/rJtn4PRe1HYfidavLRL8Y1lViDRiWgt9aN3t1Uv9qYnud9nDlps6KttaLt+3JuejGFPTFjVZm73abHnlgkR7TIG0qVRTE6ITeJzmMSea7uu4tt0VasEJ9FmJ+eE/3Lj4Gq0Rblo2fU2g0O5j9nm/FxCy67FfGJWZze2CwvP6M7LEtv3kbelfU1o35GWXWnE+25mcDe07ILbZROcRHF/sPskJGYMpAvPRtZxRruuWwylTVe14oqT3IveZsLln+qa0UCVe1FrMZ/smq3cqUMFc4J2XbTNSsHuWDWYjvO6O889Q8KttnMIy02I6JwxkC5MR3bfcprJJvG5PVvnUP99dzbbf3JXqlWCk5yL3h/HtCH8XTYOrj5kvupEcEIVLbuyLJhGOzk3593aNHOWoF0XrYkWXS+9o516Ee8zPYkWadrTdOtnq6ngVjmM94f2NemcMZC2jWqyRxTmTzM4lNzadeVwDWmltvePFf7dnFecaP3yl1nGPZC16qJxnMnF5abcb87r/pkX8fPhjn9nK75rOxkXW+o2TbsC79GrW7dtRegPa4uHhJwD2Y9VVZ0vjd9/Lm9SuDc92Ym2Bs34vZtxu8hcr9+DE+d1zs84zXn9If68zbOle5LdjIspx1ZBwndepby2xrUx5xZdl0vX9g/3XNuXx8BcnzOPTGiCJznOpA77KoeJwHEPm3pC2/XZbL+VZ5YhBCfXHuD+UhciF/PJZaYP3JuKZCu7jpuxqim23Fi5U+osxOeL+WSa075E0T4qx5vz93HxO904uFppmWGsoHkVN8K5nStHVqER54BVXjxVjqH3xzi3Z7Fx5J2WCy2NeOCYZvjantcblZ/N9n1vu3ecYdDwMZ67Zredt3f4+pwWhcRphm086lmau2ezfRM64C+pnx1ynBBxuXRtv/e5bGmM/DquxMqOZgzM6dr+em96MmtxDFx3w+zU51xfm3yrhw1M/X3fm57kUIfNIjgZ0mqT6rHBSRTfcp0htHIxcQTqE+TXTF/mlgvFvZoH0vqm5fwx5/ZiPmlmsbzKfDbfTUeZFUxzm9VZt907ekrQGOfP55v7CIaOMlqR9sKqEwQnPFUUIXIKvevr+NFTg4UoyNRFo+PYGPc4o0kxuV2/Byc+85xWkLd1XteFxMO96cnR0mz2XO5bTeiAG1IFitEWMqdJX3VB9PCp70VMpKjHmqN6EkL8cy4BSmtjYFwrVr5e7E1PPrXx+9d1Ntt3DeApcqjDfm7X1ca+Hk80qODksXuc5NxiyWqT7+X8nmjXdbu6SP6vjYOrekXO4cbB1aMDwY2Dq4t65cbGwdWrCKZ+6HG2xFN8XnWSw4HEhvC5FCjq4sS/Nw6upm2uzqr/rvrvrP/u+B050GYRDyg8VU7jyG/1fU7bqzHqQs3ZbL++f/opk80nn0fBh+7kdF7/0vZ5XT/Qx9+3Fd+bHLyIwAr4S6pn91xWm9TX3J/qa3DbAVKMgTuZjYH2OoH15TKpKGlokUmbrssVVkY/6LGturItdtcF5gwOIyt1gTTjdl05bVaUgyevKlh2Y4XBbjx459zOK5dZq7kUKOrz4bDLVXTRzm8nkz6cVp087LpZgdbsj3Db+RErirYiiNgtqI3fcy0cWVc84OcQetff01ddz8o9m+3Xq0/O47qZ+h7PqpOORPE+hzG8Pq9323zwvClmRB4undepV59M79mvhb9aZDf7NV3cNqs1WrIt35PkumdTW94t73VxW3vGuF4178mrgt6T3utAEcznsArjMq7tnd2jLo2Bp/HdSj0G2usE1lR/n/emJ28zeDZJ3a4rh0korb7+xwYnuRa732VwDLk6z/SGzEyuL95Hgbyzh9EoRu/Gqo4c+2RXUTR9lTIAjRAhhwLFTxsHV73MrorC+3Qxn3zIoMWNIsXt6jHi+LHfjQgevm7Qu7S/TU4tAO6ihSPryiH07rywsix6KO9mcJ9Xrzp51dami3wjl/N6t69WD/V5tHRep7xfrfv8H/X1fS7I53uSx37fI2y7aLogRGiQU7vYNnyM13T6mO9JnFPNfdrR0l4Xh5m3WU4xgTaHMfB9XNv7GgPPjYEwCLMMrnWp23UNqk1XNYBWXZ0VnQdAITJfv2wcXO12GZosiw3YtzJu35V6Vsth4t9f+6Gv0GTZxsHVUbR2S+l1rJbgi8to1bb7lECxDseihd9WRu197iJQZ2WZrDZpisu9FhjiQWg3fn9KZqW2LGbqp57M0Wto0ohi+24G16sc7gtz8bl9bN33/ykhaT1Gns326/HinwOY+Fifnz+czfa36lZL635P4j05yqxd3W16Dehjb5PUE37exjk/1jHQtR3WFKvPc2iLnjK8SB2cvGt7/H5scJLrihPhwN1yfW9KaR/ThesoiPY+iyaKqLuZ3pi/TFU4j9+buvD2U4RbScTvfpv2LchiVkIO6lB1p+3WZRHK7WRQZL2L4Ix1pH6wv+5zNupNmYQnL/VDb13qon2S0KSRSeFQ0fCLt7G3TWv3JBEWvMpg0s666kloWx3s93MYexBmOckl+tX3JYcxMNkxGANhEHLYoylJfSXC79SrKFuvrT02OMmVFSd3iFY8Oc8wHpvPfaJT7+VQbzyf6cNKqsJ56hvDtylWmtwUm8anXJFkdueXVUedharRyms3g5DsNgqvrCP1uNH7SpOborg9TXy/J/huSRQnU07mqM+jacLWDp9F4TDl/dlmPPiPWb0ZdmfnQgQP/yns/e10FUIEVDmsNrhNL91HIohPOcnyOmVw3MhgDHxuDKQQ72Ni8C8RPtc//zyb7f/txk/fE5dzaGP7sufQu5F67Ljuoo1wya26rrvcQHkgBEt5aEKTLD6PWGGQW3iS6uYw5U3px8wCg5TFt+ex18xY/dDHqqNYeTbNcOWJ4ISVxMaxKWcz/dLlhtmriONI2Q9e8N2e5K1LMzqvTxOvkh5z0bAe3zqf1BOfcSkrT95Gq7FOZdSqKZXU15Nkq0hviu9HyslOghNydBktqP8VwUgddNb3LvW+POfxk3x/njiGHNpSpvgepx47OqmpPDY4yXHDMqHAw7Lc1GtkBdKsQpNGFGl/yuNoPtvuu11XvSl94h6605zC31iRkLL4NtZl4Slate1m0nu1kfvm9eQn5U35ZYKZa/eKImeqVYPPY18Oni5l0fBdm+2HWnKUsID8OtFMzdTe9Tm+xTmX8/4eVd+tmyI8yS2Q7msvupTPAr+12ZauJYcJx0DBCbn4GHWreiVJ3T7yOJdJHg/I4Z6q1+/xUNt0VQNo1cX9sgxOMt4zpwuHuYUmjWgRlVPbnr5v0FLeEL5N3bbtNnFOpCqoj/EG/V2KVm0R2OlfTJGimPky4bHn+t1JGeYosDxRhE8pQ+TsVg7FzO+Ux9VXsTgX1ynGt9jfI6fJHDf13r4uAqXSN9FfSeKC23Xia+itEo+BWhaSWn1d+OFstr8VYUmutc1bxaqx1Ne2vtt1pb5vuuwqVCs5OCnqi8MovU256fcj5fSwMqbgJLub8yWpbtDH1q7rOmVBKIK7bILTvlecUbSkoXeus9xipmyq77TiytOlDOR+ybUgEQVkEzr6cZiwTVGugXTKtoxja4OY9LkslxZdNyUeA8cWHpOH66XAJPda2kNy2Oukz7F1kG26KsEJdCa3/StuldnM8942A4w2XalmNb2NtlhZ2ji4Sjk7Ykw36McZnAc5BXiCEx5L6H23VA+Y2yNta9SmVOd1XaDofeXjilJ978YUnHxMWaCK4De3/deSfjcizMypM0DXko2Bfezp80TGQMaiHvOGEJg0chhbevkeZ7ByuhKcQHkOc9q/4j4x8zyL/sKL+aSvwrnC2/3coHcri0JVBDejagXBIKRq0/Uu9zYBiYuPCixr2puebCV82DzNdaZ1IwooKfr8b45o/54c7k1zK17PMvhu5F7Qb0V8z1JNaCvhPT5NNAY+j+sTdK1ZZdJ7a8QuxXNDqj0IG32160o9Gftdl+eO4ATa9z5m7Zck5Qacy/oKTlKtbHiX82qTJanO395WHSV2mlGwOpQZPYxA4n7bpXxXUhWBtPRYn8kcD0v1/RvDeX2dSTuR3J6dkhfUo01YbitxupByDMw+OIliYKrvh2s7XauvQbsDWmVy01g2iR9sm66q8OBESwByVcpD6FdRxM3hxrHzm7PYSyHVzM4ibgjifEiyEqHHVUcpZVMciJA3h9AUHiPV+PAxNnksQarjHNMeVW1LdV5fFrTZquCkO1msOopjyGUVbE7fjdIm460j2YS2gma3C04YossITbLcP7ANCVfNLus01MigTdd1189pJQcnHtDI0ftofVWi4wwG9T6+16luAK8LW4mk+NaNHM+DUscsxifV+F3M2B1FoBRtAexzsr5U53UxszujqJJi/7UxFA1zugfI5Vi8J/1KteK8pGt7qolOghO6Up/P0yGHJktS32913a5r0KtNKq26Bi/XB9jB9C28RbFLDGOVQeobyM1YEdIlhbfHMbOpGzk+AAtOKMV2ouM0fj+OSU0riv7xqXr7l3Zep7hWbY6gx7+Q4HvZfDdi76rB2puepLzvNwY+7LlJEXTgeugrTW4YersuwUnGPJw9LMv3aOPgaqgDZD2TvPTejDm06+r6ATXV96KoB58I0lL0VR762J7j+DeWm1YKlrC4cl1g4SrVd9rM1NWluuaV1Karkep7OOT7ko85nQcZFdFyuy9Kvblwl1J9v94XuAm1MZChOBxRaJLLflWdhBsxuSTVxLYq7mc7P5ceG5zkeLFONTurJEOfIZWb4nvQRqiVohXCsq4LL6kG9hJnjKW4oUnZH7MP2Z0HBbcXZFyE3o+UMOhRXFmd8/rxUhVZhnxe5xiepa47fMywoF5ayLkKY+DjGQMZgt8GvBH8fVJPUO6qXdfgV5tUpbfqGskmwmtZzCfPRlCAzM1QNu+RQhDMAAAgAElEQVRL/To6Ww68mE9S3fh93Di4KvGhJ8kN+sDH9lzPAxvEk7tUk0FKnRGXYmabdh6rS3W9K+68Tjg7dchFQxMnvpfjfdqQg5NU13aTIh7PZFzaUk/QPRrpu5lqn6JlXYQc0w7+zlVkFZzkuoxR+n23XN+bwS41Lmzj7/ukfh1dnrupijqlFt5SHfdgi28ZB2jadZE7s1JXk2KsSbXBb8kEgqtJ8RwhEOxX6jE3x/u0Ie8Pmuq6UeoYmKIzhJobbTkssEVeK+J1p66ztRqcZNCm611f59M/Hvnv1ReWlx0fyzp2M9mTIUdW4/RrMIFQ3bZnMZ9kcCSdSPW9eLmYTz4l+t0l2hnQCi6gHakKzL/vTU98hI9UtwEY60PxmlKtDv/Def1oQw4ETZr4Xo7BySA/p8Sbjv+fMfDRrDihDfW+QmN/vq9XR7xO+Pvrdl1bLe5tNoo2XdUAVpwIB+6W+iS+y1Bv0If2ulIGQV0+oJo1WIah3qAPeXNP6Jr2o2UwM/WRYqYepCTkJCXXizK4/6INY23R9VW020u9n3CbdeKUNefrPoO4xwYnuRaFNxfzSa4BQTKL+ST1kqn7DPUGfWjByVADLjfoZVBM6p8+52Qr8axUVuOzejzXukLsTU9M1gNGS9DPE71PuEdPblJ3TGplT5J4Nku5Ire31SbVCsFJzhuSCU6+l/N7MtQBc2ib9pmBBkAuhN7l8FkB8BiuF+UQnPAUo19tsqTXgv8ttlsKQkfTpqt6bHCS8Wa2leDkVq2kiB0ZWsDQGNoKjaQBV6ya6oKZsGWwwTAAQ6doWA5FQ2if5zIYvo9Wm/wl9gF8m/gw2qihp6zDX57N9nutvz52xUmVcW/2ul1XzkFBrxbzyU7GbbquMw/h1rZxcGWFRru6ekDN9bsBAIyLomE5BCfAmAn6WVfqFRY5Sr1J/pPq59Gm62V7h7Oy3s+pVYKTnGfUC07+cpjLgdxiqPtmDJEgCABYlb0gAGBYBP2sS3ByQ2xqnnKT+Ke26xpVm65qQMHJi8V8MvoHtWhv9DqDQ7mLJXqF2Di4EnIBkIvR3+MBAEBB6pZKQ23V/1SpA6WnhB8pg5N30e6sV6sEJ7kXvW04lP97MNRifK5t7KBYwnAAAAAokonTd0sdnDyla1PKOk2S9+3RwUnsTZFyOdFD6lUno90ovoDVJpWBEwAAKIw9TgBgNan38shWrMR5l/D41mrXtTc9qWvum90c0oOuo81Z71ZZcVIVUPg+XswnY+2/mHvvwMsBb6D+IoNjAAAA2ic4AYAVnM32TZy+X+pgaZ2FBykXKySreQ8tOHme+ebonYiVNrkX7w2aBdEmCYCMuIcAAIAyXPqc7nc226+DgOuEh7BOuy7BySOUsNTq58V8spPBcfQiWnTlvtqkskwPAAAo0FBXzQNAF0x6epyUtdyV2nUlbtN1eTbbT7Zn9krBSbRaKiE5PB1Ry65ZwpP3sa43Dq4GPXBGgEV7PnT0Xua8TxMAAPlJ9rAOAAXqqp4zNMeJX88qK0hGudqkWmPFSVXI6obnY1jhsJhPjgvZX2MMq02GFpwkbdW1cXDV1YXWBbwQQw9bARg9xXgAYIjc4zxCbBL/PuEhrNKuK2WNsLjgpJQi+IvFfFJCyLOWxXxSn+A/FnK4YwhOhtYezgoaAHIh9GaItH8CxswkKRgu9+6Pl327rr3pyU4sUEjh3dlsP+k988rBScwEL2Wjn9eL+WRwm8VHaPImg0N5jLpNlxUn5UkZBHW5QZYLOEBhYjYWZVAIA4BhcR/GSty7r+Q08Sbxj2nBtc5G8m1JviBinRUnVSHtuhq/RtAwCIWFJtWINoVP2tqqA9sJf3eXyzpdwAHKlPKBAlp3NtsXMpXD6iBon+eycvisWIV9ZVcQqylS1k0fUy9Ptb/J9dlsP3lNeQzBSe3NYj45yuA4nqTA0KTKYLOjvmwv5pNnQ3ghi/lkaCHQMjd9ZShlVSPQH72SGSKBYBmMP9AyM9JhsHy3V5eybnpvu67EbbqyyB7+sc5/tHFw9ediPnlbt8Jq/5A68/NiPtnaOLgqcvVJtBz7NYNDWcXHjYOrMT1ovCowVLxNqjS50eUMzJQX8V8S/u7SuNkCbqrHhRcJ3pXLEa2ebYNVFKu5SHRev/dZrcR9CXTjMlGnA2PgaoyB0KGz2f7F3vQk1XhYRQ3wrvBm1G26qnWDkzArLDipYs+TOi17FXu1ZC9WMRwX+F7Xil/ls6JdwUkrumyHkDLIOx1ZkAjQpmT3bWez/bHdz9CfVIHgn85rIAMfEhUKPxgDoTPaW65nlnCy/PSe4CRVffCyDpQS/e5vrNuqq151cl5oO5X6wnyxmE9SF4cfFCHPRaGhyfUIZ2i+Lr1dV5xzqZbhNTobHOvVcgl7bg65BRpA11LNDL13+To8UaoHQvckQA6MgTA8JouuJ+Uk7Fufd+J/G3WbruopwUkodf+Kzaqq/ruYT05zLHTXx7SYT+r39o8MitjrOo4i9dhkH8g94DCDY+j6QpvqQl5km0CATKR8CFNgoSupzuvN6FkNkFKqSRHPjYFATmKT+LcJD+m2WmbK+uYwgpONg6tZwtnbbXhZL9OsN47PJUCJDeDrh6gfMzicpxhCy6p1FLvkN74DqVc3XfcQuKUqUmzX+ywl+t0ARYuHiVT3nKVPiiBTZ7P9lD32TegAUks5KcIYCOQmZR31tjEx1Tj5Lp79svDUFSfVAPaxqFef/Jw6QKkDk8V8Uvf4fFPwKpPG21L2kOnA8wi/SjSG1SZV4o0AFd8A1pdq/H6pXRcdep/ozVU0BJKKwliq9u+ey4CsxISaVBPFvmnXFf+carP6rCbiPzk4GcCqk8ZygHIcez10qp59HmHNUAKTxtg3Wivu9UdgmENw0nlRLPZnuu7699whh/cYoFRm5zNEqc7rul2X8xpILWW7LuEJkJuUW2K8uuOf+3R9NtvPar/sNlacVAMrlG9Gm6w/6kCj7RCl/rsW88nhYj6pZ9b/L8KaoQQmtV9GvNqkUa86Ka1Afhznfmp93Tgnu0EveEUSQGopb6IP96Yn2e2LxyAIBIExSzkGmtQG5Cbl8870jn/uU3bbPrQSnAxo1clNz5dClE+L+eQ8VojUbbV272vrFRu81//Oq/hv6o3o/4wN339NuOSpS9eJ09GcZLNvzkPq8zSDvU0+i9UgfUh5MRr7iiyAtSRu6bGpwEIXoi1DqpWwL/amJ7s+WCCVxDOLjYFAVs5m+/VE9HeJjulzu66YLKZNV2hrxUk1khlLL2KFSN1W6/eqqv4vApXvfur/X/w7/43/5mUmM/q7dNTDxt6l2ExcnH+UCHdyGZj6vDiknNlk1QnA+lJes6w6oSsp7xmze0AFRidVkbAy8ZOG/ezISMp7s1cJ94C6PJvt97Hv8UpaC05ipnjKCx5pfdw4uHLT8a0X9WqjnA7oFrOMWsX1FmZEO7lUs5Zrx6WsSLpLtB10cwn0LWWBeXMIRWb7WmQp5Xld9/kvejVVHWiaNQ5FSzkGbg9kDLRfy9N5tiULsRIvVVenacLgJMvnrDZXnFTRwiDVUnPS8hB+u59zXV2wmE9msRIqF33fMKcM+oouvsU5XbcdvGhzDyiAh8Ty9ZTB98tSixNRWKknKbyp/7R6Jh/xgJzyGepob3pS5PU8zuP6vP59b3pi9QyUyRi4pjjuegz8rzHwyTzXkpNU3+fthHXC4QcnMYvbqoPxedvj3hQlepNbcTkK31nsaxIuY/zoU+pWai8X80lxs5vimN/E/1kHQPXeT2Y4AX1Kfa85K63AEu0nzqPtbBV/Ck/ykvJhcTPO66LOh6WCYdOH+7XCIZQn9jBLvqJ0KGOga/varFwkJ2O7n3kX14LstL3ipA5PjhLPBKRf1zZLfZRsisvRPuzNI/7VPvV+UYj9eN4mfdVV9Wtszp+9urVYrFL69cax1g8a/7VvC9Cj1DNTiyqwRGHl4pZNHuv/+6LUWbYDlDoQ3C7pIT1ac53fcl7XhcMLhUMojjFwBdF2849b9tF9bWLE2l7a54RcxCr79yP6QLIdf1sPTsJUy67RmNoQ/lGSF5eXCt8/pzqGe6SaYZTDCrnT3NtdxV4m5w+sUnpTwJ4+wABkMDO1igJL9oWJ6Nt+W2Gl8Txeh/AksUwekF+WsGJjb3pS32/8fs95XcT3E/hLbAhsDHxAtN2cPTARshkDhQCr6/R51j5zrGgsq06uo21tljoJTjYOri66HnDIwm8bB1fZntyZqovLs743Bo/C/EOF71TeJWjT9VmMValv0Jt2V7nuhXN4x0zl2/wc4RxA13K4z8y2MFEfU+xncnOV4G3q69AfHuazkMOEjmxbvSyd14+ZBFR/Pz8IBaEoOTxH1GPgaaZj4CrP9FaVrud12/dDEXZN96YnHzLs/EHGzmb7s5EsSsi6htTVipO6IFnf+L/r6u8nuUvh2Npex6bavbTuilUAfzyy8J1C6kEyh/N4M7cVG/Uqk8V80hTd7prReZvXi/nktO9wEBiXmJ2fut1itVSYyKbtYqwyuVjaz+Sx3ghP0orZdh8zOJTXuYWCa57Xm/E69K2HAkSRMIcx8GVOqzGj8L7OM70xcD1v4przJPX5E6uDmsDkeWHvA3kYw8TUcQYnYZrJhY92XWvR9WTPo3XXeVd7XNQrGBbzyYdMW3M1PqZetbRxcHWeUe/In+OcSFaoiJZuR2sW3RovYxWN8AToUi5hc12Y+H1venKccoZqXRip93ZYI/Be9sbm2snlcl43oWDSvQxbOK+b76dQEMqQ0xh4nsEYOI3nsnWf6Y2B6/m1XuG4Nz159GTXCEqmsWrzzwi6Xj/hngyqEQQnl9GqMVv/6PLA6sJ6zKr/I+c3gZUdRosjnq4uTP++mE/ex4B4+pRAKgru0/gpYUZDLjfGTa/sHNTnxP8W88kvdcuOvgLKCDkO46eNm7vtpgWZ8QLoQr3qZG968jajNpQ/1tffusgSs2Z7ETNJj54Qdt9Ut6mo319FlgTqcycKdTmsFN6M4lH9PHd0Nts/7+sXd3Be16Hgs7PZfg7t0IA7xBh4lMmzbDMG1tfDw57HwGmMgW29DyWMgZeZdcmorz8v6nuipYmWy+dAMwF2y2oSulKHCnvTk9y+G23KPhjqNDipYg+BxXzyg15+g1Hva2ImYvtexE/druldXJDrYvPFfYXzCEp24qK9W9hg+jGXc6ledRLhVVsP522oZxUd1m2vIkDpJHyI/W/qAs2rDmbDNOHJrvAE6MhRR+PXujajOHEUDwKzaCvWqmih9CrG7y4e1l9Hi5Ld2Iyffh1mNKGjaib67E1P3sc53cn9W6zYas7rLu5p6wLojlAQsjfNbAzcjjHwMvaiOu3i2hjX9ua5rItre+5jYM73Gy9u/Al9Oh5wTV1wUn0pSs6iOPdjH7+PztSbeCddqjoSL+Pns8V8Ut3SSmoIsxpy2yOnvoH8XwbHsWwzZlLX+4bUN+p1iHIe7cXWEitLmqCtq5vym6+hDk8Oha5A22LVyXGGbSmfxzH9HIWWevw7f8pS9JiB34zdfUyUaNqUCE96Vs9q3puevFu+H8xEM/v2uLknifN67XCwCejivO6jIPU6Zg8fOq8hTzEG5japrYrr4puYIPEuxsGLda/tERb3+VxWxRhY/95phmOgMRludxrhydDavr0r4V6sl+Ck+hKeHEbBLpd2CqzmMgrLpDG0mQ3ZrDZpbBxcfYj2WLnuCbMdPz8vhWkf4qe6sWy4URcjnsXPTsLArdn8vhKeAB04zrxF5Xbsz1AttXv4M1aWNpoxvBm3qwzG7iqO/UOEJ1YO9uswimk5PiR/ndhRfTmvP8b9SHMeX9xSAGvO52rpPE91f1sf945QELLW7O2Ra6Hw62THvenJdRzr8rPZ8nV+eU/TraWfVNf2l5lOjLjIcMIAJFd/T/emJ6cDrKcXURvqLTipvhQmp7HyZKi92YaqDk12bQZPi3JduZR78W3ZixsFh1wDn2V1eLJj5RrQpniYyK2tx32asXu5OJDzGL4ZBZZXffZ3H7tYTXXUhG6Zex4/JU302V46r1tvpwc8TcYrSm+zecuzWe6aMXCa0cQIYzHc7Xhgwcn12Wz/NIPjeNDfE/zO3SjEU4Z69sRUaEKL3m8cXGU5QMZ5bmVVt35czCdWnQCtioL+b97VzmxGf3fXyB7FJr4327XSnrpweBHtwoD8xsAjY2CnmvAklzFQcAJ3iIDz44Den2JqQr0HJ1GYFJ6U4TpWmmjNQJuyLrrE/iG/ZHAoQ1bv2XIe7RsB2nLk/rJzdV93qwb7NY17crrxdUWV9xeyZAzsVjZjoFWt8KDjAb1FgpP7CE+KIDShC7/Ue4nk/s5uHFyZ3dS9F7FpvPAEaEX06VZg6d6ve9MTKwd7Em2krPTpVl04/K8VVZAfY2AvchoD1QjhbkO5/74sae/EJMFJJTzJndCELryPQKIUrxTfOrcdM8QBWhE34VZEdO/13vRka+gvMhfRA1oruu4d701PTOiAzBgDe5PDc5lVJ3CHmCT2dgDvT1EBULLgpPo2PDGzOx91kLUlNKFl16XNFFoan4Qn3bkUnABtO5vtz7Rc7NwPNtTu19lsvw4E343pNScwjaIEkBljYOeuY+JgaoITuF8RG6o/QHCyiro4uXFwtTuQ1Kx0l7HSxAMDbZuW0KLrpggQzVzuhvEG6ExsKOveshu/RDhF/6ZW63fmh5jVDuTLGNidaQ6tc2IcNnER7hDfkZI3iX9X2iSV5MFJY+Pgamp2YFJvNw6udhQx6UC9r0mxD6IbB1d1ceiHDA5lSK4jTDPeAJ05m+1PhSetexuhFAnEg6ZWx+37TRgI+TMGdia34FiIDfcr+Z6luGPPJjip/tqQ+T8S5t79FMEVtO1tYfua3Ep40ip7KAG9ifBEgaUdb+P9JCGFw9a9jRZAQAGMga37IcPgWJAN9yv1O3Jd4urerIKT6kuB8tSFsDd1AfPfGwdXxyN5vV36SeD3nfdDCuSEJ60QmgC9O5vt71h58mRCk4woHLbGeQ0FMga2JsfQpP58z322cLfYZ7DEPZ+KDHyyC06qv/YVsO9Jt97HJvA232pHc87yxWUmm8u1SnjyJEITIBltu55EcTlDCodP9ovzGsplDHyyLEOTJSb3wv1KDCEEJ22KTeOnWnd1om7NZVPmlkVBWFF94Jt+R3jyb+PSSi4jqBWaAMlEkdR+eqv5SXE5X0uFwxJnHab0g716oHxLY6CJEY9XP8P+J/d9neL4hGJwh2h5VVJN6vJstl9kPSjb4KQRrbu2PBC0ol5l8i+tubpjRcLnm9bBh3KxUssMp8d5N4ZzAihDFEt/EH4/qCmsuGfMXF04PJvtvxIKPsrnNsU2gofhiDHQxIjH+Vg/lxW0x4D9p+B+Jd3PFHvvlX1wUv21+uRVrD75mMEhleZ6aZWJGd8dWwpPxlaUqTeCn46lQK6l4KP8Uo/dQhMgJ1E0FX7f7bKwwgp/hYJW6t+tPq93onc+MDDGwAe9jzGwmHpQjNe/ZXAokKuSJjgJTvoQq092zCZYydtokWPGYI8iPNkd0Y3bD0PaCP6xlloKmr38rc8zOjcOrrTBALIUhYNdD+TfeRuhiYk2BYqwaycKZPzltzivP3hPYLhiDNwyBn6n3tNpN1qblebIRBe4XdzXlDDevSt0/PmsqOCk+qtQWQ+e/9S+617vo3A5mhUAuVlakTDkC/3HaP826pYH8foVKr54F2GtGZ1A1qK9x2HsWzX2Fc1Na65pyQ82fHmIrgtk9Wpzkzq+nteHzmsYh7i2GwO/qOsQ/yp5T6cYu6c+S7hTCbW4ouuFxQUnjY2Dqw/RvuvfipXfuIzAZFfhMr2l8GSIIV89e29H+7cvYkzaHXFLwfo1/0drLqA00QpizCuaP69O1pprWGJ/mp0RTzT7zXkN4xVj4NZI2ypfxyqTolpz3WVplbDwBL6X+ybx16XfixUbnDTqcCCKlWMPUJoVJjsCk7ws7dEzlFkvH+NcO1Qg/96NloJjuLm7jte6E68doDgxQ7VZ0TyWIsv72CjbKpOBitUnzUSzsbQ6ac5rq0xg5JY2jh9Treht7GUyqJbJwhO4Xdzr5FyHKb47TfHBSWMpQGkeeMcyoL61wqQMsc9Mye2crmOzb22YHrDUUnBr4AHK2whMjoRowBBEobkusvxrwDP1P0b7ol0bZY9D/TnXM49jT7ahrop1XgO3ijFw6JNtlydDDHI/p6XwpOSJAPbWows572ktOMlNtMuZRsHyp4HOrvoYxdh/xh4mHg4KUXA7p7exb4XNvlcw0ADlOs6HZvyx0SowOPXDeczUH9IKlPdRWNa+aKTOZvuz+vOP+9ChFA/r1/GD8xp4yEADlLcRmIwiNF4KT0oLID4/P8feetCq+F7kWPu+HEK7wH9kcAydiNnPdep2vJhPdmJDqfoB+HmhL+k6ll+daodTvvgMTxfzSX1eHmV6Xl7Hd2imOP40MR7Vn/NRfOb1z4vCXsbHpfPB6hJgFGLW5nRvenIYY/dhYfeSzf3j8RAeXGhHBAyne9OTnTin62ekzcLe3roINbO6BFhVjBu7e9OTrRgDp4WNgdcxi/t4qKtL7hOtiQ73pien8Xy6ne/Rfr5WHY3xc6J39XfhTWZve/GrTaohByfLYvPq+oJ4uBSi7GY+wFZRqKwvBufCkmHaOLiqB5JZZsX0yxh0TxXI27f0mW9FoWKa8VjUjEGzGEcBRike0j9PyIlic+4Tct41E27s88BdIkyrz+Vqb3rSnNMvM37DnNdAa6KYfRhF+FcxBuYaJF8vjX9qQ38FYDtx/TrM6Jn6YxSMZwITenQqOOnGKIKTZUshShWFy92ln9QPv/UAWx/feRStDbIjcaOYfpigGHMZg5rzrifxPjer4poQpRmPUt6sv18ag4QlADdEsbkptOzEuP0q8eSHj83YXf+pqMyq6jZezQNuFBB3M5ho1pzX58ISoEvNSrzqyxi4u3RtTzkGXi6Nf1bX3aG5fiVeRfl1wqEVvqRQ3yPtTU/qFU6vM/kA3g3lvm10wcmyKFx+fUhYzCfPYvPu3fjzWYcPwfVF8EMEJZ9/FKyJc6BZHbVcTN9pOUh5vxTSnVtZktZyiFJ9GYuWx6Gtnsahc/slAawmHo4vmvF7KUjpcvz+GGP3eXMPaUYjbbpRQHy2dE7vxnndxeSe6+XnoggAnddA7yKkOI9Wy8tBSnNt7yJM+ea5LK7tntFXcGMV5U7UUnY6mph4uVxPcb0iE7OMgpNBrDapxh6c3BTF4+Yi+dVSoFLFoNtY/t9v+hA/jXpQrf/+DwISHuOWYnpzvjWh3lb8PKQ5ny/i/DMDInPxGX3zOUWQtnVj3HnMOfDn0t/V/POfIz4PUm4EmfN7/iHxezOWB8M/M9iM1D1Ih5aClK+i8HzbfWRzPb/N8r1oc0/554hnMaYco0Z93xSFu69BSiMKidWNc3r3u7/gexdLY37zz2MtELr2fi/1e5LjNTL1vcPo7xuWgpSvYn+Um89m1T3X9j9vXE++1ocU3dt3835s6V5s+fn5vvuwxvI163zk92Jkrh6r9qYnHzPopnQ9pJaCf/v06VMGhwFPt5hPUp7M/zZbHwAAAIAU9qYnx/dM8O7DLNqnkebzrzvY/Jr4vf/tbLZ/mPgYWmPFCQAAAABAwYZUsGYtpxkEJ8eJf3+r/j6g1wIAAAAAAPTrcmjtBwUnAAAAAABQrqPERz6o1SaV4AQAAAAAAMq0Nz3ZrarqdeKDH8ym8A17nAAAAAAAQAf2pif1apA63Dg6m+2ft/kb9qYnz+qN+RN/bm/PZvt/Jj6G1llxAgAAAAAALYtgo964/0VVVb/vTU/OY4XIk8XfXQcxzxN/boNbbVJZcQIAAAAAAJ14VVXV5tJf3AQo72OlyOk6qzX2pidbEVhsJ/7YPp7N9gUnAAAAAADAo9y1afuL+HmzNz15FyHI+dls/8N9f+ne9GQnVrCk3tOkkbpNWGcEJwAAAAAA0KK96cn0kW20XsZP/d9cV1V1UVXVh/ip1S256sBkK4O2XDcd53U47RGcAAAAAABAu+5abXKfzaXVKLkb5KbwDZvDAwAAAABAS2ID+NxWh7RtsKtNKsEJAAAAAAC0ap3VJiV5fzbbvxjyCxScAAAAAABAC2K1SQmttp5i6MGQ4AQAgP/f3v3cNhFEARx+cOMUN4DiDqCDpICVMNJKHJkSUoLdQUrYK9IectgCnA6gAyMaCCeORiP2YCKB7PW/zfj7pD17/HzLL28HAACAA0mFDzJvmyxHcI6jEk4AAAAAAGBPVWqnEfG58DkWv20SwgkAAAAAABzEJdxtUvy2SQgnAAAAAACwnyq1E9sm5RBOAAAAAABgP3eFz+9itk1COAEAAAAAgOH6bZPSw0npl97/RTgBAAAAAIDhcjS5Knh+i66pVyM4x8kIJwAAAAAAMFzJ2xjfI+J+BOc4KeEEAAAAAAAGqFKbo8l1wbNLXVM/jeAcJyWcAAAAAADAMPOC57a4pAvhNwknAAAAAACwoyq1s4K3TR67pi45Cv2XcAIAAAAAALu7K3Rm+V6T2QjOcTbCCQAAAAAA7KBK7W1E3BQ4s585mlzivSabhBMAAAAAANhNidsmOZrcdk39dQRnOSvhBAAAAAAAtlSldhoRHwqbl2iyQTgBAAAAAIAtdU29ioiP/V0gJRBNnnm1Xq9HdSAY6teXt/MzDq958+nHyo8HAAAAAJejSm2KiPx3yesX+qW/9dHkou80eU44AQAAAACAPbzQgLLomvqc/4w+WsIJAAAAAAAcQB9Q8nMz4nk+5svtvZrr34QTAAAAAAA4oCq17/uAkp+rkcw2B5N519TLEZxl1IQTAAAAAAA4kiq1s3yPSETMzvAqr3zx+0NE3Nsw2Z5wAgAAAAAAJ1CldtpHlPzkrZR3R35dTU4AAABjSURBVPjUfOF73ipZdk394HfdnXACAAAAAABn0r/Wa9LHlOiDymTL0+QtkqeIWOXHa7gOQzgBAAAAAADovTYIAAAAAACAP4QTAAAAAACAnnACAAAAAADQE04AAAAAAACyiPgNPzWbRBSoURAAAAAASUVORK5CYII=;" vertex="1" parent="1">
          <mxGeometry x="430" y="252.96000000000004" width="132.41" height="77.44" as="geometry" />
        </mxCell>
        <mxCell id="9DIKxnrTDn-VduJ4_lhs-47" value="" style="shape=image;verticalLabelPosition=bottom;labelBackgroundColor=#ffffff;verticalAlign=top;aspect=fixed;imageAspect=0;image=data:image/png,iVBORw0KGgoAAAANSUhEUgAAA8AAAAKGCAMAAACyfgJsAAAC/VBMVEX///9f0OQiHx9jixjhyqKsq6vIx8cAAACQj48+Ozt1c3P8/fwwLS1ZV1fx8fFMSUn19fXW1dUjISElIiJg0OT+/v3+/ftWVFT9+/do0+bj4+Pl0q/q+fzg39/FxMRz1ugmJCTq6uozMDCv6PJEQkL7/v5l0uWenZ2c4u+H3Ot31+g6NzcoJib8+fTizKX5/f5mjh14dnZxcHBqaGj///5i0eXjzqj39/evrq7D7vWbmpoxLy/LysqWlZUqKCjX9PmMi4vv4sum5fDo5+fh9vrv7+/48ujS0dE3NDTm+Pu7urqDgYH9/v/0/P359OyxsLBLSUksKSnw5NC+vb1nZWUuKyv6+vr07N3CwcHl0KzG7/ah5PDc3NympaVOS0v7+PFdW1tAPT07ODjv+vzb9fmr5/Hu7e172en27uHX19fr279gXl6FpEp3mjXy59TPz8/t38apqKhukyiP3+zk5OTn1LOUkpK66/To1rZjYWGKqFJyli72+fJx1ufa2trz6tns3cJubGz7/Pt+2enY4sVTUVFJR0dHRUXS8vjN8feB2urp17mhoKAFBgbz9u2T4O3S3rzz8/O36vP69u7w9Ohs1ObU09OAoUJCPz9qkCO+7PWL3euE2+rq2by1tLSKiIh8e3t6eHiOq1hkjBr6+/jJycl7nTz38eV/fn5QTk7V8/gPExQMDAzx+/206fOW4O1u1efNzMy4t7fi4eHi6dTs7Ozs8eLB0aOswYSGhITs+vzd9fr4+vTm5ubo7tzI1q68zZunvny4ypahuXSXsmX2/P6Z4e7N2rXF1KkZGhrK8Pbd5s3a5MhTrLxTorCet29eyt2CgYGbtWtfzeHl7Nlcw9VKjJixxYuuw4ipv4CTrl7p6elZu8zV4MK1yJI2X2cXLTH5+fmIh4dlY2Pg6NGjo6M1VlwvQ0csODr19PTl69fX4cNAfok5aHBXtMRPlKFAdoA1b3nq79/j6tVAb3gqS1GY4e5dv9DHx8cdNzzi6tXm8fLj6tZgucljoq0wBh0fAAA4XklEQVR42uzBgQAAAACAoP2pF6kCAAAAAAAAAAAAAAAAAAAAAAAAAAAAAAAAAAAAAAAAAAAAAAAAAAAAAAAAAAAAAAAAAAAAAAAAAAAAAGD24EAAAAAAAMj/tRFUVVVVVVVVVVVVVVVVVVVVVVVVVVVVVVVVVVVVVVVVVVVVVVVVVVVVVVVVVVVVVVVVVVVVVVVVVVVVVYU9u7VBGIwCKPrEW4GmCTOAajpCJQJTiSUIgiHBMQASjWZN/lpXT7/knB2uugAAAAAAAAAAAAAAAAAAAAAAAAAAAAAAAAAAAAAAAAAAAAAAAAAAAAAAAAAAAAAAAPzVatMEUKT6kPkIoETPZb7dAyjPps2PawDFqc/5tQ2gNM0pBQyl2q/z5xhAYapDDvoACtOvc9DFFHsY5qu+5GgVExa7AOaoWkRcc9TGhObYBTBH/amqlzm6xYSuFTAv9u4ktKkgAOP4N87AE7yaUIkroqjQGFyCCyJxV7SHXCR6yEHFolVKRBRTjbiAa60arVFziaUVN0SKCoq7VHHFXXEJInpwV1xPJs+X+jSx0eRFInw/UGgPvf2ZeTPz3lBxmqgmhlQzL9KVzlecQhMVp5BaPV81K0czm/3HEekSEFEx8iqnU6WYS/WHvve7WCkHiKgoLVYm8/FDaLXd6FdVgoiKkW2+MvGimd/h8xv9qnIQUTHy+5RJGVLsiXJHoTSqEnxcwyIqTuXKxNcPBnulU6mJG1erpCgPYhEVp0pl4oHBpv+60qH4jjBREbPPVSblGcdldxmIqBg1ODPNoMuV2QzOoImKUr8Zv8ygy9L7dTaAiIrRKKcyKQUWJ/5NVD+ZYQcRFaESx0+lAiFVitlK8QmY6D/gUSZzN9oTP/ubf8ePZBEVtY3KzDPbp5SKqp9FOYEmKgB7OJxzW6P8xhZSVg4ewiKylq3x4b1ZLpkUmbXgzOFDF6r/+h3gSjtQqbLy8QGYyFLhU/UyTfDenaZjdvypUUo5SkLsl+gfazwZkb8TWXD7eRX+RKlSarXKai4vSiKy0MEzMgtXxeHndX8UcHaV/A4HkXXqbrvkn3DFTr1vk3fAjnKeoCSyTvh0RP6hSH3sRGMdfqtMZeNePIr9ElnG1lQv/0qg4s7zamQ2Klu+0VBDyOPlFjCRNapPuuRfc9Wergkjg4ZsAfvcSvFj0EQWaayQuXHVZ2p4osrOGeIcmsgKtuNBacip4WvH39lgNltl57GBiPJXd8cl87Nj1rWmsGlA9arfcLrdTqVbzD0kIis8ObND5s9Vf3JZFQyVKgP3fG952caNZeXeuU6+BExkiTY1s6RFIhUnjrVBUlSlcXg32mGwN3D8JbKk33MBaaHgNX1raW7a6Osp5YXeRFZbcioirRWpPQe4ldPnNB96btCL7T1218CBu8Z2AxFZ4OjhiLRccEmJY3aZv2y2TxmifiSMnbd9k0jY1HPleBBR3v3edckCuGgvRZJ/rmnBecq0/SKl++TeIKL8VF1xyUI4B4Pf3dzv0FVthckwEFFebKcK0299NYAlHZYA8KRuLhs7Xfyk+1gQURH262oE0LGVNng9UOL8/tXYEZ3EL9aBiIqw38PJfvdomrYTgMc50dSv2VQQUc7ORWRBxKqAkee1hPMAyrz9gPa9RLpt3EwiytnxAvXragLQR9MtAmw24OwckcHC9iCi3NQEZGHUVgPD12q6cdANM5K9fvlRfPeXl6+Eru1QEFFODgVkgZwE8Fj7bg2SVnYXuktxTbf2ltBtBRHlosYlC2RHDYDB5oCnGA/Al3drKfdFUlcQUQ4aI7JQgseA4ZrhABImG+Ov3u+XR18S/78VST1ARH8vHJQFU3EUGKAZNgPY1U4k3Ywn800+/j7VtEcMmChXdRWycGKmR+DzS4DePYXuraatfaMfpnzJgInycEUW0BUAfY2ABwHYoEcr7p/XtLdthRHwCwZMlKNzsmCMgGdqus5LgBH9he6Npn24KnRPNe0mAybKTTggTQoZcGsAPYwd4Li2+5L4Lq7F+UISUTFOoCOxB83nsPZ0Aaa0a16CfiuMltdqL0TaNtLR8Ptl526fvrYg4d7pQzf4xVmiTJa5ZMEET1+sQ8IQLamP6QzWLS1+Uxgta7tvmg9y2MONTbfvVdQHpEmwEUSU7owsEFftqWM26Ebr5606AHvbGdV+WPtaGN6mBmCxAqg6fjiWStcs8BVElG6BLIjgmZpqJJWUAG3GJAJeDqCrkerVeGIFy/Asfl3ouh8BHsiMdtxtAyJKVyutF1lw4oYdCf1KQ/O9ADqeX7tlEdB7vxHt/fglYbi++5LpbaRDmfu9VgUiymCWtJir9vCFJUiyj/I4lHL4ASz6vB7AQGG49FakXHohDEvPAidlBpGT7JfonwQ865oxdUbJxKj7lzuPlgrDzU8i5b5I+QjYYjJdsInzZ6J/EHDw3vGD+DH4Gpyr/dBNbStaMgmozjChr+ACNFHBA94RjB06ZkeSrcw7361MfJ7yUuMQx++1nQB8DaRNnw9Xg4iajR8Ps3qZJ+NC4KZEvca6VdSt0owCJrQTLVkK4Lj8RW0NT3AQmU2YYPE2UqT2ZE3qKuCS8sU+lYGjHzBQtGgY0tawAhx+iczGj125r+ukEb2tCnjHrNipC1Uw6m2odKjMvAB6ihatBI5W/PS3Yxc5/BKZTBio32eycNqUvAM2dowe1MFgnzjDqX6nAejdXbSoPXBwljS5EgYR/TCwnTC069o7z4BdC24vq4ah38bZc53q99z9gEmiRb0APHCZFp8vgIhMhgmT7e2hi8m/F7j38GIdUmwNHodqWSWAdaJF0wDclSkLakBEZtN+GfKOIKnxdoXrL555A7G7TQfxQ2lohltlE/Vnn0FPBaq+sXenUVGVcRzHf8+dcKCLBAgoyCIiCIiBJimSG4pKaq4Z4VYp4gKSaGGAG+KCxaYkbpUpkikuqYkWCW6padpipS12KttsPe3nVOc097nPwGW/w9ypmdv9vPGU4pEZvjz/+/DMnRKdqOysBzQajdQaUk9kLkSVhUe3p7U4MqdsP1FxsRLSeGfRTasW3D9uPSBrgr6wSSfIrCiFRqOpawWpL2gGauXnVFx7PzlzR4Nuk7e/dbSi8Hg26li/dBmNtyWPLPUAJZ2gPUO3bnk1ODgmQBAcHFwQsnYzgKN0PL9eCY1GU88M0tCBvWgg/8jhHKMjR0rRUIdZ4+jY3LLblw3tBVFgEF1nCxKjdnsHolHFZYZ839N+8qvRNCKANCJkJIB5szpAHo/1942bc/8tMnWc1x01wgPWJq4ZheZc0/LVaJqygBi98ffbxGgfgFmG1pbNm7XeA01yn/bc0kFzOt4i3+1zZrmLH3rhL8hSlanlq9E0JYmI3vnYlev03TtEFBkH4CnjdtPjywbNu2/W0KH3dDeYNnTo0PvuGzfu4TmL2KIr3+NLu4OqPJd83R1SWYfPVl89dTojOaVGSUbG5VNVZ7Mh2HsGGo2mPj+2/P7KCb76nojWAph2i6LuHzcNoivX0nSXs1Ej50RGE7vdJVU8BNNjPENegkajaTzgS66cWPCHRLQZwCDl6r3z4aEQlVZlRIhvz4/Z0frzBwFU6BqXcRbGfAkhK7Q3+tZo6ttKqF847st3vzIUbLyr3JOjgA53KlPv7ctmeUD087VMurIeATC4k16v31MEHNc15v0cUN40X61gjaYRBYT6mON+IB9+aSj4XSJap9QS3HFQB4iyCjN26ARp3wBY2F4veAHI1jWwI7mQ5RtMahSEQ6PRSCXWrMCXCLkUbViIfyfU4nBg2u3mTs6Lxj3H8i29cbUkQkdFnPQAnB7QC/IOAcW6eiKSq/IhiAvwI7Ui942ERqOReI1QP9CAyQ9hHPedG6HSATxs1q7VU/Pu8QDlcaU6Y1Pt3ZxLgU965OkFywEU1n/jhsJKCIbEHCB1eL4GjWm82ijACebrPdNrsovLsDY7XVxcDg0u4qEM/zYKuOtrtCS1jVypLku8ivCvmS7m+v293A/C3Zh/dOVcX5cswa1eeh95eNY0d1bv8Yrtmbpab2UBfL9yvWB1EYD3pbNz2XviGzeMnBHsSeoLHQKrtNDFYHYsFOD+9dfuUI49p4A2MMcnh3bOf3PCytUOwx0dx3Kujo6OD22c2rbno09v8Dc/YztOAY4uaIkDJ1d/x84OUx8bOP4Qj39FEhG8/QX3IzF45wuO+4LULsFzWrNn1XHOvHtqrnuv0HolthcD7n326AVjFwIojJDMzhXFEISvWeBJGpE0HdZom6OBw2iY79C2qVOPfaCagPnB459p69CJa9S9XSY8MexrtQXMuD40184L/4JEQl0KE7v9/ivO1XgVHAgM7Wjqyrts6T3de4HqVZxzNJnWK5H8E4D483rB+WEArmTqmLTThVkQjErYGkQa9yqs0a30y8AOZottKzz3E4rUEbDX+J4bO3HNuvf5RzdMVGPAAocRk2FxQ8QZ+o0vvnyDCN7txH1LRAlAr0EmLLyLBt23vgMY/vjZy2URuvrKDgMYNlYvKD8IyT2fU07cyKaz85CYJDfSFLc1sEKKBXywHWfQabwKAuY37KJLb4uiP5vir86AOW74sVdgaSsI9fqX34sl/+L6peQ41j13ytmueuTxQYaF1x2Me/HF6xmZO3QNpVwE4OMgbkD3BVD5vvFtk47QdTt89/4nSXOSAmF9lAqY78lRz7rbesD8hjuiOdm6dH1RnQEbPrXRTrCszUT07iVCvf2x6ztstZsBuM9pdmLuuGjOoKVDp3XoBSOPIx9Vn2ZLbwOZhb2AD8boBXu28UD2KXHf+UIpBHsTQoJICzbD+igV8CsPsmfdX9mAb7U3i5fpn8i2uvm269xlZduetw60Nxhx64T2qxzudeWkVj3d24yAJ9ibpZ+/vIAd7eXYtbz9aslnHzbXBRYVzla8N1i25J2v3iWiYADdh9437+E5jy96pGONRx5Z9Piyh8ctnTV0fXcPSJQeL7y6PSVC15SUnF5A7APi/NzvEwDXdxg2rqp/AhW3LymStGixFR7nYAErMkErO0PbsyX0X8WPflC6vo3p+YTvEn9poHzswg0H7ec+KBmxO93h0/qA7WBZLGAHyMO/OLtPz9qH4MG7eVhSIqnn0o9E5DkKRh4dutfo0IFlW6fdi9VvJTccmxu8n75zT3F+3ib0WxVRs3EVPiB4sRuRIx1WhwWsyATNZmgbDnjmttowO899YoMTGse/4vvmqjDOyOEgr5KAqYXz27fjRI5TJsKCpnuSel43YVx1zzp+oerq6eTMCF0L0j4C8Mm2PL1ggjOAi8lXb3pA4B21xZPIFGp9V8EsYEUmaDZD227APis5Jmy1vcvEFmKPX96ZY/rbT1RRwIBzn1XGz6yvRQuOaXJa3UfX1uIs90a6zf/pcE7V9VPbS1i68vodWK4XtJ0Jgwv5EATOmLSYmMD6zmMpFHCfdhzTabzNBpzqYLzufSDeHy3jh/UwfoRrD2c1BQy8+OnYf6PguEjSmMiCNTAo3r791NXqc4U5OTeOGNzMycmpOnf96uXTyfRqV7aTMPhjj17ApUongMQDxCT7YW0UCnguV2OgrQbsv9rY766ZkKd3m9Uc01VdAYO3b8cuJVJhIZUAtpCGPGO8QfHbdUo4AYOdnLgB/QdqrCmIJCaKHAUro0zAPlytqUW2GbB/F040Zhjk4/uGGQtWV8CAL1uDHXxgCTkZKaXAnytIPQfSWST51SU7FOvXLk/s924wo9aFklZYByujTMCPinuWD9KZ6wWbDHi2cRre1RsmcdnIiUZPVFfAmPwAR7WPheKOC6coqgGsCSJSoZsDQd3I2KRTxFEY+Ir9ln8O0Yz9QaRVVsDKKBPwGHF4HiH+YosB+09l47MdTOXEvs7D+qosYMxkn9kuHsqqPBpBN5eygJHB0tV380gYFZ89kaIzXzXtt1zab1xiEmk1a7s3hyIB+3Di0uvbic7Qg20v4Ik9OWpsPEzH38FOR8erLGDMbCtuTI6Gom6U6USnAHgvJkxSVCDqcD/8nplTdESFpN88urTkhrgRMwTAuigS8KPs4jd2FQ25q+0FPL+duP62AcwouMsHKgsYh8TrAwcvKOhcRE1fFwBsdmPXvixfHx/pCvDzUTPW4U2FMOhj7JcHsC6SMOqYoVnAikzQgDhDt7e5gCd3Y5exaB2+PTvFwqssYOyMFk+08lBK6TVdrRIeCCwghARN2gtq8HBhr8mhx9NFYDwunkrTybcj42wWsgq37zD87TfZ/pUi/TJW9rJgFrAiEzQgztDcYBsL2HiO7Bm0lv9D4mMQr7aA0deVXt/HQykn6wzFJ0uBuMVkxQAwE/RMnmOPP7Ihqjx3OkLuolvtAYH7uRNVPB0Ppf0meJKW2NgrGljAikzQgDhDc11tLOD4MHFy4NFqd4kzeFtntQXs/Jj42DhDGVklDS9Sc/eFw+BKMYCNegmup6+x4fyTZbLW3+vukMruqafK5yvULymAVVEi4PbGCbpmhratgJ3FzdYwL5jhmHgR3UdtAcOFHhh17QtllGbo6si8aSz76KZzAHro6+KedQGT81bLy3ByFgAnXy+IvLroqfOpUKhf4gmrokDAg8WdSl+gdoa2qYDHi//oR2EOZ3GIXumstoAxUHx+faCM/KNpOqmMLDrxFqYY6gNQtDJPX0+3fjMhqqxIlnFqsmu5vtyeB+D/6R7W72zWrxKs6+52CgTclROsigVqZ2hbCniiOCSO6a3EPa7a3a26gAeLO9EjoJSs6joZXnMH8i/TxbUQgt4bPr+jv16qfK5dNkTFJ5trOOIisDBMuOTt0W95lzy9KJouKFEt92uDrylUIOD20ud3mzhD21LAqfdyBtHDoMhplsd4tQXMvkOHOUE5P50oydQxmz7CFRZlWSWMXO6ILtdLdLKbCebK1ZKmTmml3QSG7dHX1Z9+ZEIQoSL9tk5alzBkSNS6/SsOEMqWX9BgfsCx4sozHtTdrvQ/Y20oYHEPbi4PM3XtT8/+L1FdwIccOMEUKCnrSuHJyxllmYYUkyvKdMzpYtR40ffZ4ZKG8xx3pX4CUf6F6tMlaTsMwZacPp2cZvg1LaUsOeNUxcVS4INofR1TvQAERi2m9a5IlLwf/5m4hN/8iKn8YE3MD3i0eA76FVA+4qXgaNsJ2JlOEO1Gw0zs2JLrFNUFzPcQd9ihOI/84zc+Onf9xFsZySUpKZlpaTvKqn8+UpwNJnb88v6SS+I9q/su4SHqlXXzm6pzF7KA0hsf5Ry+eSS/Esx86RK851gRgPAYN2H/qSB3FOrxTt8aZMunKc0PeAIn6MnXOZQ0wXYCHkYn6NX+MNt8VzpDZ6stYOwcS7/HecFySrOKj1w5fPhiTs43OReOoIb7K3Yrz+trnV/5+ZJsNI+361/zxx9IhcH0AmH13bImEI0Iz93qRkwRBStidsBO/emTexBMH1d6osHJZgLuxwnehPm8aCvDJ6suYHFI4frhP5Ht8unwPGnDq54d78WjEYHeL2+mr2bysV89lgsb3pYt2C+voEc1z6AJowKeJCYIhhUxO+DRksOy0hnaVgLmH6A7NL4wH7+cztCjVRcw28a6Df+V2IO3hukl8jqt2vV06qGZsTN9dy2nN97LXRcQvGCtXxAJWhdIq//AZ2ERqPB0Q55uITPQtJG7k4h8obAiLGBlJmjpDG0rAXs5KHYnLzZ9bFNfwLM70zFrMCwkfUtwTEB6VNTuAQOGGHhLvDQS1MIpU+vtLu9xjY52LNfry/sA2E+MgmKm12lzxgI3Q78xZ9CsOBNeo+RmTcehWcDmTtCzgfoztI0E7EvPQC53hwKWDOcMnndWXcC927J9aMuYHkpqeBos9pMoeG0vqOwNAx8q1zdiDIAASV8rNtcU5p1A36nMLSAQLZi+hciWC+vBAjZzgl4JRjJD20jAfRX80nR+njPo5qO6gNlGwXJYRlSzq19kUuIQ1p/zCyMe2tNMwIxb6P51uQPWRCUuWEyomEC0yHstkSsG1sPcgCdITl7VnaFtJGD6AIS9oOBf1q6N+gK+iw5a3WAR4SGkBZ4L0uPAGk59dMy9dRbiPDs6QjdjQSBkGOJHZFoL68ECNnOCXtjwFrP9nWwi4Il0g9XhEBTxOSeYr76A2XFKL1jCy56kZQf25+6FiPe/q+/cbpxY8fluU3jgTHN/hd90yJIQROSJtKL7u7OAFZqgpbdHH20TAb+4mjOY+rWSF9TH1BcwP5c9p5awj8jiFjpp9ygYOfu8ED//iSnxs4tgkNjcx+VCnsBgItMAWA0WsHkTdF9I8V3FGdomAvbpRs9RQhmzo+mlovoCZs/GM7CAwBAiV2TSpDUvoaGooOYGaMgVt5jIsw9Ww7yAi+gE7ToZdSxkM7QtBOziSO8Yo+jPpNqqMOCDnOAxWIC3HzGBm9/+GeGoK73Z2fdlyBZje69nMC/geE6wEfV04QR320LAw8YqeCdc9mrK53urL2DxcdoICxgQSUzkGRKQ6117EnKLYnehG+Jpc0c5zAt4BCcY0fj/7mELAbfhBPZQhtNt9MSSk/oCFi81wmAB60irBCWF7A9+NcSvpfwTIN/IBTZ3ZzvzAu7GCe5CPXdxgs68FrBqAmZ3avCH8gqIJT0ZCBPkRtraO6yYEzALtVtTYfv+7wLmvXa2ibe7e6L6AmY3zk2F4sLXEksKhile2kJk2TISVoIFrNwELZ2h/3cBq+2dGSR6yN7XUH4Pyy0pJn3GXhiMinstxrTgE2CSdCJLqNXM0CxgBSdo6QytBayagO0V/ufK3zgKDYhDHdMTTHjlwV6YZAiRJWgGrIQ5AbNMm07bVwtYNQHbWeqBGtBCvlGBaOjlBTITPgDTjIy0sRf1yw/YpEGZ/ZYWsGoC9rXUA5VAmuGZHojGyXwFbwhMFEpkmQQrITtg+cusdIbWAlZLwC7yvyUrd9W5NQ5NOhMTaYm7Z4QQWbZay3FomQGbHCmLWwtYXQHfCsUFkKa4TQpHcxI8LbBSvkpkWWwtd7ZjASs5QUt/UwtYC7i1AUcmBqJ5u59U/u18g4kskdayi8UCVnSCli7PWsBawCYHzPoFYHbBMahnZr8x7TjuwWP+TQVsY+/PIDNg0xNleWsBawG3LuB94WjZ5kgTr4FdunCi6J1NXQPb1i5WqwPOHsgJljf/g/9dWsBawK0KeEs4ZAj/zY00awHq2LCaM+rsi8asJfKEWMlZrFYHPHlM8zeTepoTdOG1gP9h715iorriOI7/zsnUCIM4DMOrUKDQGWBqIT4Q8YXgi6kDvoogDx8FRWviI6jgAsUSFdCEKMEYeaiLxpYEpDYuxHSpC5OaNk3c1KRJm7RdtGkXTbtrOnfmAHeGmeGee+fOzCX3s3JBLNF+PX/O3HPuQgr4czBqBzyYAUkyWnnODW1dQme9fxZ+pBFtPYslO+AmM3XJfhL8sh2aoAe8MAJ+rNYfVK6yByVeDnLcfpOXSEUeYK4pIpHtGaKC3ICNF6jg0HyXdWzSA14YAd/wub1Q3dOEw05IZL0l/fYbUwoViyvheazEVz2igtyA2eWxTQhoJ5uh9YAXRMAP1LoUq5TMZRmDZEWdkj9HaqykXr6Er+f5RKojiApyA14jmqCDztB1esALIWDjErWOE/Yovbc1+BLc7XN/kthO+GoRBnJNnSiUGTC7/PnQ/BfenSjRA14AAb/7HhUcRciVWRQeFaiykSAsz0QBr6Ne9sLXESJZ6ziiAQtYyQQdfIbOOa4HvAAC9vy/vw4i6h0ntFWBR5vUT4LPHqZe3vHzjhfJ0rYgGsgMeI15/rddsRk6Tw94AQS806zSO76R0cl3ESzvxlPalHhuZALsz9yyEMksPYgGLGB5E/QVKZdGLynRA9Z+wPfZZwqhV9Wq9DHFZskPY9XtpiJN8DFlJxxyEQ1YwPIm6DxAygytB6z5gLcuZTuSoecsIL5awKeTBFNchmmfPk2kMy6UwJuzwkIEmrocmgUsb4I+C0iZofWANR/wevfStewmVJBPfBWBzxAJqvU5pm29v4x6mC8chY+eNMKj+zmiAAtYhQlaNEPrAWs84KQdVHACashVeg0OGqR/ZFuSx6boezfhY7yPMFo6EiwrYLabtwHzOEMFlY16wBoP+Mk19g4sNdQTH3YZ/wRIGKKZszcexMZuuAhf1grioa2HKWUFXJco7TnnzdRtjR6wxgMeTVTx7aItNqX3WN2atzWHhN+kmHho62FKWQEvpxJf97yLClYa9YA1HTB7hvgQVJHRqTTgUjKfyRYEZ52Y6VdbL+pnAct5KmcH5nWeCj7+Sg9Y0wE3mTludVf+aoZhzPFO3oXDhy/kHeUfoRlbuxVBFDVYCLc2RAEWsJwJej3m9Q6bofWAtRzw2zFUsAsq6SfesuDj5uds7ziuCf4ckZRbBgJyDBMZWqsQeSxgNSZo8QytB6zdgE0rKc8CrHwb2gZvWw/RGU/l3yQ5eNcKv4om0ogckw5EHguYf4I27wCkz9B6wJoN2LjJzH4CVksv8ZEBMePnVGRUwTU4fb1+Eq5qtxN5LGWIPBkBZ2ZTl8PrATVnaBbwvbdkW6+FgJe/JVddeAI2rs2mgt2N4KDsOMNLiN1eR0UqjfBltRERrvcsOcfybWQuDd1MKSPgHVSwAlB3hl5MFYrVQsDyLeEKWGm/cXVQTbM96I2Pm+Y7A1hGOFjsDaVljipg3NFzqy3A7KyhmylZwPyvet4J8MzQesCaDNj01NOveQNUNES82X2vEhC7x7GHpbICRB5/wJnZ00nyzNB6wFoM+J3peB7sg4oqiI8tmBW/dL6/1iwSIfYoONPPH/AOvqH4BPtyPWDNBRyfF0c9Vpigpt5gs6npC+plOXyMEW9v/vz9jx9//PHv16++JeoajIJtaO6At17lW1Lr2IKtB6yxgEvWxlF5/SrfxbIVeS8BYhuCnWb6/s3r3+iMjX+9IZJoeBuaO+D1G9kBBb7Hth7ru9Ca2oW+OVpJGfPPW6GuqtZg+7trqZdT8DY1W/+3r/74zUzFfnv9PZFFM6/55g54A+cRQeMKKniQpH8OrJnPgU23zx9IpMyy2HehtkfER2cVZjR+TEW+MMLL+OwC/M0v2dRX4t+En5auluUN2JTCe0h/1Exd3ntXD1gTAe97O3PTlRo64/0bJVDd3WCf0CTlibrc/Rm8OHOLCfM6jvph/q/Apbvb3plmIcFp8mlo3oC311CXnATe63ey9+oBR3nAxicXM8/sSIlJpLM2rkxIAj/lN1MW92CG6adllKlZA29lg4T5PZv69RFcqqqaM7aM3a0oyComIdQd+aehWcCcE3SKifv6jgdJCyLgxkXz226MuoArv7ydIGh82+1ovMcPrl83JtxeX7dm7dPLKddyEqmX7JTHJoTD8+6g912UnLmW7fl+MuEto5swr5ZR/2Ig4szoqWgNXcOdkd+GZgFzTtAbwGENm6EXRMCxdH5L46MuYJpdEyeojHG7ttTjjuvXlXE1idSfnJWjNxEmFWSO4RbM+iHzfGzs+UwTvI23WQjzKw3gKnyMv2xLI6FRHPltaBYw3wRdsx3gn6H1gCMWML/sXYuPGxE2vRYyh70F86h6YSHMGzMN4Cekjpw+fXrPyWPVB5PhVrSlzbJQtqFZwPwTtIwZWg9YKwHn3MuMRzhNZZG57GMIaqp/NsNXNIDKr3HM4FG4v+N07UCS5wKOtAWyDc0C5p6g5czQesBaCfhOCcLL2c9xgpdp6RMto/+aqV+7R4Eug8jqkdpUuJQWL4xtaBYw9wQtZ4bWA47igJfl3PniwndNe3PYtxVmpRbihy0/AwFUtU/OflnfxJYr/tffncBAocFbx8NkdhetYn1FiCD+gNeKJ2j+GXoBBPzh4mDuVUZpwHGub25TrODyEm+XY2OfLs5bU3fq4mbT7B/7eyUIL8ck8cvePg4/inoKigkz+KKsCDheSedIPJQAJI0YfK3uSgaabUS5rIjfDc0VcMkS8Rty+GfoBRBwcPFLozTgGEh1NDJLsLON+FfcesvhnLOPPGSbOd5b4WDTYYqZelmXMmoCVu0x+LEHQAEJREuvKOQK+HgOddm9HpA3Q+sBR3/A2BSZJXiCBGKZfPEMIo580Se5jzIwLf7Gbjpr4/3tJrgcKzT4kc4OQSgW8VcUcgXcRAVXt4KT8QQV7NAD1kDAb3NfYafC9e6+stoq7vaWlY2V5j6yixdAtss1UL4NLqbRxR8diImJubJy8d54uF0y+LXa+y49Dd+qwwLm+Vl2ObjlUcGBm3rA0R8wPpJ3h53yh7G4DTsg2DZiMBQ+hB8DI4bAAR8hHtq+VYcn4Ez3JJxYB27H17mnmi/1gDUQcAJ1S0BY8fdk+ec5gFXV1w1u5anwlnrsE0MgHewIlGJD4BexgJdTthfFbV8KFWzSA9ZAwGwJ/gjh1WLj7LfCCuDg7Bpb2FXLHrValbqttryj0BDYSQB24kOTl7tzBGzM4Z2gfe+2O7BZD1gDAUdmCS7qI1weFQGralf7zsbp6en7DfNZnQo4iH8ae8coR8CZVGDeCxlu17hn6Dw9YA0EHKEleIJv6WsGVp0sNMhxbhvbhFbO1gJekQqYTdCHz0IG0xUqSNED1kLAkVmCt6TxhNMrv9+RD4T/WjEJBUsvuEUoYDZBrwDkz9B0sx6wBgLGIc8S/C7CyVpApCuwAg9l9XuuNglAlZ0o15rbYgW/CAXMJujHgPwZmubpAWsh4EXU7QbCqp3vHF/ydUMw+zuuCzrSZ5y73lVeexCC8WGiWPcYogALmGuCVjJD6wFrIWAsoYIDWxFOjkGuRxi3BVyAC0dOVicjMGdLFlHK0hDxcwzigHkmaGUztB6wFgJeRAXmMwgnZxuRKmsKOGnwr+NSKoIaKyDKNVgBrBq4VP6Ja5nvKt9TOwAOEQg4k7odXiLTLuqWpweshYAjtARz3Sa3x+DPJ9WrEERVWW63hShnFzbBH3Z4zezlH4BDuANeTkMiRQ9YEwFHZAlGAUc//lbgwk+q4ebccrehv8ClP9+lIdelIf/FUN8kCZFbfjfBT6eCQ1gDZhO0cpv1gLUQcGSW4AmetxIdM/hKr/0Agoz6fruNqMnWAnyQ7mf9PwgO4Qz4Ig2Rt/SANRFwExVs3ItwmrIQaSwvgdQOg5fVe1LhYm1pyLIQldmbAxx02l+bDA7hC3gDDZFDesCaCNj0PhX8vA8cwjdD91uBh/sNIiPVcHGWPUpjX9HeWyaoL7WTkOsrAk773wEv5yg4jAHvoiGS/UQPWAsBsyOgNZ8hnOqJRGk9AB6em135Lrm7cTQI+drsxYTUY1obCblhqxBwNBQsMeBGMxX8tEiBG8uooEkPWBMBsyV45T6EUVEakag7A0DqyY79ha5m0j0bwFMNnULb/T0Ou/jG13wScvZxNkL7UbgnCXzUD5hN0DnHocDRq54ZWg9YEwGHdQnmj83SlgGX5IPbtm2r9vzwW5pFCCke6rG6f5shJ8dJY15pbBPLr9W14KR+wLtELxWV7Ts2Q+sBayLgiCzBZUQqS3ePEyLuty1YWuuL4FJvEV0Y2U5CrwJAbaHBv/QBcFE/YDZB50GRTDZD6wFrImDk1YR/CXbaOZbB/LIiMI6KQeF07pFmVvOg6P2GpST0JrcASQFPQ3Ulg4P6AbMJ+upFIBQztB6wNgI2rYzAEjzBNckOV9SXPWvpaW+bJIIjVtE7/yvUDJgMjQPJ5QEKLjyG8GABr1sjaYLe8CmUucdm6CgKePtuPeCA9m6kLutOIUxSVwFTxYSTzUam9Tng4RwmpNUBj1zCgeMwg1Cwwb+OVIQFC/jjTCkTtLkRCq3PoYKmKAo4IY663NcD9sd0gQqWGxEW1R0PFX7oYykVfaBc3ACPPqKG4gqh4C6Df7UIE/dfUcwiKRP0LigV/8AzQ0dRwI2V1OWyHnCQJThnO8JhIN3QBaCXKDD8fDrg2etuSi1EFcUTViA1wKHk68mQ5PKK2NjFb8VDLmMKdblzStIEDcXq2AwdPQF/fZi6pBj1gCO9BCcLtzsnAVabkqhezvwM7JLVDGAijajE9j97d/fTVhnHAfzbX6ShHIqlRyhWCoOh3WynoUXL62Aig5QJzAGDDdhAx0SSMSJDuRBFsxeVZJlmy+ImsAsieGGCyy7msttdeLdr71z8P+zpeRgdHNrT9ik5pz6fW6BJW77n9zvPeV5OATj6rvajpK4kvp0RD1J1Y4QiXnYjnhknKW4hbf3HSVFrnAC39aiHTYgAa/rDSREdQ8g0trjok3TnXZwvheLaG+zYwoM3LZlT/j5Qs8tt8IfJfDuFSFXrbYpwhRDPNCl84GCBFAHjBFiyU4TPIwKsqW2EjdJnGqtkn7JHwak7/zGA38ote+LuB2w+R4o9NGtuO9rTHMNZ0LPFWSc4CJPieMgwAcYaRchWEeB4F2+bGxm1tbToUNo7rr/y5sFyy145p7YOGt79KYlVm2VpBioX8YzL/DYZDak9dNg4AV4khRdcVFSpd9TZE2D1HVE9MuxCTOf5o8U0lCmVJdol+BP9T4FoOM0ns2EdF+FRcBEgRcA4AZ7yU8QzCTx4fBQxh+wJMLwa5+nwFtOHDgL44A2LaVw/BpxM4yZ4Nq3ulp1Z1DCR+EkTtQA8e2jDBFgdBRid4Xg1WMmmALMS7EUGxe5v9Wv02DHTiJ7wPai5ORf0WCKFXUrrKWhPAeJw+Hlu0x+qJEXYMAGWnrHtrnmoJYU3mwK8JyWYdaFbw1jmcQ7AEc1RrBro4CHF7da0hiiqdfxTjoKTalIEDBNg9hkEwMMKRTgHsirArAQvI4Nit7cqiQ5jmYayN8evmidAlECPfIrYV4aUSJM6qk8v66A5KWM9tGECPNTB7UGSY119appVAYY34ycl1cQe5HvBXMNYN98HivUFmH+82vPZ/d9edNCMxHpowwRYmuQ1zsrOj7kcyq4AsxLci4w5NBi7mNZkw1h/AbiUeoAXSTFyI/VnoJSno4PuATj30IYJMLqdvG7yZlmzmV0BZt+E7EFmsGFcsw5j7QfwtdaCpCLo4SbF4dXUm0d/mY4SPwtuGlkPbZgAc7vJa7ui3s9kW4DdNnahzwy2PZxZh7GuA/gwlVFoZiTlY/Ole6RwOXR00B7w4yNF2DABZoWTGpGmJVkd08+2AGe6BJcoHahph7GUUayTqU+GxiKlOt18tY8inN171kEznaQIGCfArML0SEhLhYtNa8u6AGe4BJ95d+da2nMWs1DOWTuaykwsxiNHY1iPZIUCpLh9X8cK3k5wFCbFmGSYALNWxNmNtNSrW0g1Zl+ApWpSVI4jI37dfvdYA5S+YjEJZdVxicYRDYeg05yaQw+SU5TjpwjZq2cPjQ1w5MhXX9MwAcaEjxS+x0jDjPpRzYWyL8Bor8zEoqTQUHjZ69C4g+wCcMdiFnUAdk6HvliDtvbHEhIrU/e7WfsGSbllI8X6OOJpiamWnMehO40TYKlJJsWkAymTFjYPE8rCAG+W4DZw01bW4uogypU0xnAvRjfmMIvTAL7WWtBff3h0sv6WAwlIZ0lxPIxktLvUvzqBeArWSfEQXA2QYqzfMAFGm4uinkpI1b9OUgRD2RhgbPRxXZQk3Vq+sm/z/Rd/sWNTxxLg9XKLSXz/tsYpDUdqMD5CEX2X6z2JsuhXm+gJ6DdvU+v20/h1u/F4Jibh9FeSYsk4Ad68VXDWS0hNYx+xpdlZGeD+ICl8DvAwVN1ATJnmcryvAPxulskcX5YCZ3buSlm0KJPK1/IAcXWqCXY9hl6FVRTlegAdHXSVBL42n18ZJ8BSvVoQ9qWY4AkbKeQmKTsDjNU+fouSVn303DxwZnDnLKYa4KO7FnN459qOuVivdSk1kp5bb0U8BXlqOZ2cgT6r7LVt7dDTQbeAszJS9LUbJ8Bw5DnVBDf1p5LfKoqaLECWBri/ml8Jvkxb3MBPGtvCHQXws1kGok9v35bjUhdQMEeMjgjNjJDC6bpVhMRCi6yByQ8n+PUN3h00I42RoslAAUZFkKLklQIka8pGUaPzyNYAo83HrQSffTHAXW9pT2P60yx3wTePAYdi3sQvZwBHp0wxZhFf4xgrqTkhJDIflFl+ayXE18S9g2Y6WQ9toADDESCVfQJJkWorKaohjOwNMLzcSvBET0yAtWdBvHUIwHsWk3g/dk3wWxdLAMfDfbTF+awA8RWF8ynKH9iQEE9rro/05tfhYuWfuw3WQxspwFsJ7vDegH6ta36K8uVI2RxgdljhItJXkTsaN8BsIuKjVy3m8HPMfNBLJ4uBtuqY/DqvDDt0VIEGUvUFrbv+ujSfe5uYjm4JCbSrcy0nwPDvoQ0VYDiqnewjvzwwDn0ctVWk8lklZHOAN/uxEDiYGbY3kMIDdGltjT5YDLz+mcUcniDi0A+R6vvFyRIA9+dk2jQWXGqDDlLYRozf5Z3QyHBBYW1vJTHOOWuRzm+sBxnwkPXQCQM8mZeWISSjv8VPKv/IcGsREpHcSy6ZVLZbQAoBduWlZWVm7wI8XsnzktM/Ua+U4VU2iKU5lfiUxRzehKL46MmuYkR41mnTeu19CfoUWTvouYb1linECg2s9TTQljwHEuq3sw46Axop4W56ucSBFUmRFmmTs6o+hPgqlm0yMQ1DSDrAHOQX7l2A8ZT3Bb1wcaFMXc5v8mGst7FFGhhldfSfcAWSUThCsY73zOUt50asBOw2+cUfefUvF6ZGZADbl2PaYAEGlvLpucrqP8axi9BG/dxheu7qELI/wB5Z4zPlv5qQMdMw1rWYFC7I1GBfmS7sR9Ics32kR6AVTAonqnCdDz0pGS3AaO2lGPKVau+Ax4Et457V2tkAmwjIyGsh/A8CjDxS2MHZpy9pOVJsnmGsc1BJ1qaH/5a1ImXuPD8lIPcWJrVXVCcyoowtYzZcgIGBKtrOb7O57HaXzdZBGkamgP9FgDNRgnc/m+QocMwkw1gHwY276SrF4Vt2g+HQQXPooQ0YYEg5o6TfaA7wPwkwK8GT4KvrXe0SDOA7Q8/GuvnmnSfnPv+rufR18FTY0kOaqh4mk8Z2dZgTGTKdp1jErtxWDgqQEmkpcJh0mQwjRRVWDhodSGTKGjEFLty5USFwVax5SPYvhwAcK20+9fP+00/u3C2/aTGCN8q/Pfjk9P4f6649+ugYMqYgnBvsyadNTp8rz7t6A4J+bcNn91F8lcHuVgj89nWP9VoJtvug9FHzqbof97934Mmdg+fLv9yD6vxq+Zt3D14/cHr/73V1vzWXlmJPSW73vHXV466AkNplsPPlXULsf7l6uFCCwEXxp1r51eHt0tL3m5ub6+oisd6///SBA0q0I86XqxLGU6FkNOL6gQORoEZEXu275uZHpaUfQDC9UGH37L2gvcqmstsD93Kny+6L7HKkcUj2DyUQBMEsfrr0Uoy3LtRAEATzKP5w8CVm8Igov4JgNkVHL1y8ePHIhS4IgiAIgiAIgiAIgiAIgiAIgkk5/vYUblitObHCjRMVYmqOIBia9Hh1+unk+m1f/j7aRm6oCg6ICAuCYbV2B0f9FEf+CQiCYEj9TbdlSmAFgiAYUq6TEnEuQhAEQ8qnhK7MQBAEQzpOiYyWQRAEY/ImSLD/2QQEQTAoqXFtvVKm3VytdUAQBANrXcrtveonLZUDEATB+CT3idweJ23TCUEQTEIKV9KLFsQkLEEwjyC9aF9TPwRByCRHd+ecy8Zcti+sNOWsPkAqHlyl7S63QxCETAlNaZ/6NRYc9iBZ0zLt0LAKQRAy4nGLj3YXdCAZM8uHScMCBEHgT9pY8FNcTYiv1R1VaD0xnRuokknTWQiCwJtjeoQSOFuB7WbC9WtB+4jNRrotQxAEvuafNlBcfrt3Htu03/NRspzBcQiCwFFBjkumOMZ6Z60ObBfqlClZ8tmweBIs/Mfe3bumEcZxAP/xgOVefLnzCAcHd/REcNDFy1A5NQSkGOxg5RrJEMVkEMThEILgIlgwt7h0CZnyMhTq2JQOHfpHdO5USof+Fz01TVqaNmo7XOH7GW/4PdN3+N4dzw/+ISnUCrPfSajZlGHSnSqr5jcpNN44F5+t4nsCgH/A7A0y7C7pSLZ4Jkv0BzZbWubpyHaiRHS+SDISDPC3pP3Kk+ku+4mSODhWre2ecaK9oHuUT9l9Hib4mD8u97KXFQSuQ7StzAOsEQCsq37UcezN6Q67sZX2xs8+2FeFzvvHIi1nY/ghucV+peymT2Pqs0uuUXEKcmk2rlJjvoRM0cYo0t0+2SAAWF29JDu2oB7k2Y2H3oi7cvW3dVrZhunmuGw3osZ8kUjEEjjb7l291ktRkUjvt/zH02c5iYz5eekhAcBaHmnz6J6G4+xH4azRpnWZe8XLUdd6lTrTo1Hy1XODY95Tz3UiklpsId4gOrGFi4lOALAyUXuQssa8H91f7BTE9cfmPIUtKF6VZibXR6htItFp8flMLZ+0cIcdwNrMUJdX2G9YtD5JZbeaNNPLsJl4N0q+T5rsljsmAcDKNr6apkTkeOwPaueG7BsePRZpZa8/p5VFjU4PXJoR94RxrDlIlQgA1ifKxUEzmZwedWrsHmFfgn/a6pef04qe60aoyNnVgn4b/3r0K94xA/ydvQRjSnpqS1W2tPz2JwKAAGg7jX6//yVklGJsaQl85gEIhOgkMu+n+eHHVztsSUlUV4BAqOYZq/HHm1VNEvf76uFDdq/4QRXlFSAQpBOjcTk+9viD8RFRfeik3lmtafIwv8XusJU4VYWQhvwCBIU7jrOZZpv2G08E4Z1bN2UjN+HOBWEzcssSnnCTszIWngAEidPk+eaAK9Cex+a84XxdwoTz9VyRbmga/rUACKpFfmtZjToXafbdYZR8+mQzyXy8SwAQRO1q0c6VRaJCjd3qPiKqRNi1cIEAINA+jnbZ3M6gqBOJI3Yt08K2BIDgE0vug4Iu0ZypXKc3hQoM8P/Rc43QmYxLIgEAAAAAAAAAAAAAAAAAAAAAAAC+sQcHAgAAAABA/q+NoKqqqqqqqqqqqqqqqqqqqqqqqqqqqqqqqqqqqqqqsAcHAgAAAABA/q+NoKqqqqqqqqqqqqqqqqqqqqqqqqqqqqqqqqqqqqqqqqqqqqqqqqqqqqqqqqqqqqqqqqqqqqqqqqqqqqoq7MGBAAAAAACQ/2sjqKqqqqqqqqqqqqqqqqqqqqqqqqqqqqqqqqqqqqqqqqqqqqqqqqqqqqqqqqqqqqqqqqqqqqqqqqqqqqpKe3BIAAAAACDo/2s32AEAAAAAAAAAAADgC2c3KMhK7nqMAAAAAElFTkSuQmCC;" vertex="1" parent="1">
          <mxGeometry x="685" y="252.96000000000004" width="100" height="67.29" as="geometry" />
        </mxCell>
        <mxCell id="9DIKxnrTDn-VduJ4_lhs-48" value="" style="shape=image;verticalLabelPosition=bottom;labelBackgroundColor=#ffffff;verticalAlign=top;aspect=fixed;imageAspect=0;image=data:image/jpeg,/9j/4AAQSkZJRgABAQAAAQABAAD/4gIcSUNDX1BST0ZJTEUAAQEAAAIMbGNtcwIQAABtbnRyUkdCIFhZWiAH3AABABkAAwApADlhY3NwQVBQTAAAAAAAAAAAAAAAAAAAAAAAAAAAAAAAAAAA9tYAAQAAAADTLWxjbXMAAAAAAAAAAAAAAAAAAAAAAAAAAAAAAAAAAAAAAAAAAAAAAAAAAAAAAAAAAAAAAApkZXNjAAAA/AAAAF5jcHJ0AAABXAAAAAt3dHB0AAABaAAAABRia3B0AAABfAAAABRyWFlaAAABkAAAABRnWFlaAAABpAAAABRiWFlaAAABuAAAABRyVFJDAAABzAAAAEBnVFJDAAABzAAAAEBiVFJDAAABzAAAAEBkZXNjAAAAAAAAAANjMgAAAAAAAAAAAAAAAAAAAAAAAAAAAAAAAAAAAAAAAAAAAAAAAAAAAAAAAAAAAAAAAAAAAAAAAAAAAAAAAAAAAAAAAAAAAAAAAAAAAAAAAAAAAAB0ZXh0AAAAAEZCAABYWVogAAAAAAAA9tYAAQAAAADTLVhZWiAAAAAAAAADFgAAAzMAAAKkWFlaIAAAAAAAAG+iAAA49QAAA5BYWVogAAAAAAAAYpkAALeFAAAY2lhZWiAAAAAAAAAkoAAAD4QAALbPY3VydgAAAAAAAAAaAAAAywHJA2MFkghrC/YQPxVRGzQh8SmQMhg7kkYFUXdd7WtwegWJsZp8rGm/fdPD6TD////bAEMABQUFBQUFBQYGBQgIBwgICwoJCQoLEQwNDA0MERoQExAQExAaFxsWFRYbFykgHBwgKS8nJScvOTMzOUdER11dff/bAEMBBQUFBQUFBQYGBQgIBwgICwoJCQoLEQwNDA0MERoQExAQExAaFxsWFRYbFykgHBwgKS8nJScvOTMzOUdER11dff/CABEIAQABAAMBIgACEQEDEQH/xAAcAAEAAwADAQEAAAAAAAAAAAAABQYHAwQIAgH/xAAVAQEBAAAAAAAAAAAAAAAAAAAAAf/aAAwDAQACEAMQAAAByriFAAAAAAAAAAAAAAcvEAAAAAAAAAAAAAAAAAAAAAAAAAAAAAAAAAAAAAAAByHG5OMAAAAAAAAAAAAAblht1Tfe7GSY6XdjCi4bdaUAoAAAAAAAAAAD0H57u5ybPD5am1Yx8akcPny7Ug/QoAAAAAAAAAADe8E+zQr11YNLNRZScObBPv4UAAAAAAAAAAAAD91jJhrOT/gAAAAAAAAA5b9nm+mCaLHTaVyKvtWODQbJ5+J29ZX3V0yg6JlSWO2SWJkh3dbo5L0mx2wxyU+rKZXqVC3JcD6mm5kAAAAL9QeQ9M+brbRjVqt1o5N3xXiupSPz56a7Dks3U09AZJ9WcuNMoUiuuVzPLOnRsuf95b33qVSU9E+drjVF4QAAAAAJGOvBR5CzSpT1lqJM9CWphZYe/QZXuzNdhIH8i7otV6EvEAAAAAAAACfgBYVeFzh4QWWtBZ/ysiySFLFg5a0LDXgAAAAAAAAAAAAAAAAAAAAAAAAAAAAAAAAAAAAAAAAAAAAAAAAAAAAOXiAAAAAAAAAAAAAAByn/xAAqEAACAgIAAwgCAwEAAAAAAAAEBQIDAQYAEkARExQWMDM0NRAVIVBwgP/aAAgBAQABBQKc52T66E51z/0/llnjlljrVaZdIeA49f5mOPZw0TLoj9UMQakvFKpMq/BRVIdRJBru/qh8hOV8oHa+UCwoPqOYUAVRgdsBRGQky/qrRTE8xDBHQxykxdaCpMY2lmCJRqhTHE+qVMh2A7FWQqtXPRyYMXo40Fyshra1ZDrx+qjKUJKXUDMMddnzrtdnztnUA8SlKcusXbF3cGOxd5D+zhy5myReCGxjOcmo6wQlKyLKZ4uAy16olhnytT2Mllq2UNYqnDytVw1XxXXL0RBsJatV2GryALFS+LG7yvTwxUXruF4uDS2y2K2fAWuYJFvpkPd6SuyLJQmDlYz2Yrnv1b3nv2l8v1KeV10p3kXkyX5z47afjg04JM2EuwQaoi6iw7EWCXV/mNwTr2j6yNStF9rtPvhDZLKOYYDO2YXuyfS10ruDoj0hWEXSIv1b3nv2nZFwoyqY4sMAJAmv+ftPxxL/AAxTkLLMSpQxtsaWVrlOr/MtbyHcbIDLtRfa7T7+sC/yVdrpN58Kmir0oylCRj4kwfhcysXSMJkYQGwJAl5pJ7CzSDbKbc0XMW1zGHALYwDEtoKzgkq8uxewsXWmlzOI8wESGDKkEQxZWMZDvLxROF7khfVOXPP1aBbyccZFviMMvLLgQvLEhFIynglcWJCtSfdXdRcPZYPbVAYEozgleWJgZeUXEga8Wzok98hq712LzmBECFQdOL0xI8R8ofseLgLjRGlsM8MfgNpZpq558leRTgDBiBLOiEvrqHpZX0h9/V+qEtDkuIpCrgpIqFM4JLhKk+8cvBhFVouCAzhyK11VVVKy2pgTVdn/AIJnCdc+uhCdk//EABQRAQAAAAAAAAAAAAAAAAAAAID/2gAIAQMBAT8BAH//xAAUEQEAAAAAAAAAAAAAAAAAAACA/9oACAECAQE/AQB//8QAPhAAAgECAwUDCQYEBwEAAAAAAQIDABEEEiETMUFhcSJRsQUQFDJAQlJykSMwc4GCwTM0YuEkQ1BwgJKhov/aAAgBAQAGPwJndiWJuSfb1dGIYG4I/wB0NFP0rVT9PbYpj9uWF7ncOVq7ECL0UDz9uBG6qDUsw+wKi9xuPK3ta5lvG4DZeDDvHOllhe6n6jr52lmeyj6npTZVtGgLZeCjvPP2tI21KqAR7ymrg3jPH3XHPnWeI6+8vEVnlOvurxNXJtGOPuoOXOnjXQspAHvMfa4cVCxyMBZuvutTRSIM1u3GfEVnhztHwdd462rPNnWPi7bz0vSxRoM1uxGPE1NipmORQbt091faxhZlG0CZSp3OB3UMVhWbZg6HinXlQWdlimG++gPSisDLLMd1tQOtHFYpm2ZOp4v05UcLCo2hTKFG5Ae/2sMpII1BFDDYm213A8H/AL0XwQGU74ybW6UHxoGUbowb360cNhrbXcTwT+9FmJJOpJ9t2eMzNbdINfrWzweZb75Dp9P9UQObLcXPcK9IjnMgBF9OB40AN5ozyYkl9OzbTMeFTKZSmQA6C++pYA+bJbXqKOSyxje53VrjHzfKKXM6urXykcuVI3pjagH1RX84/wD1FRxiUvmTNci1CV32UZ3G1ya7GMbNzUUFlGh9VhuNSRmUplTNcC9W9Oa/yig5YPGTbMP3qKAvlzX16CoVWUvnUnUW3eaGaTEMjOL5ctSxNvRiPu2gkOoUxN+xpVcfwCWfqv8AeosMDpGMzdTWM+RaxX6fCvshqkYA+Y8a2jSuX+K+tBppWcgWue6sFqf4yeNYX8Q+FYaJtzOAelQxwtl2hIuPhFCSOVlYcb0ZSNdkJRyI1rEfg/vTvBA5uEs40G7vrZyNeR8gHUbzWF/V4VhPkbxqCD4m16ca8nYcaKx7fQ9kVHiANJBZvmX7vZE9mYZf1DdWPxZ/zLM3LKKlmbe7E1jPkWsV+nwqytq6D8nWtn6HJfpp9aVZltcXBGorBfjJ41hfxD4Vh5vgcE1FJhiGZe0v9QNBPRXXmwsBXo4bVo9knPvNYj8H969Fky7EhRfiC1LjFJK+q47u6sL+rwrCfI3jU+KI/oX96aSeYmTd7/CpDA2fTNGea/dqymxU3H5U8DRIobeRfzStHGrZwB2uVSTsoBa2g5UTC+h3qdQa/lY79TWeZ79w4DpUUoFyjBvpUaSRIuRr6ebLGwaP4G3V2cNGD33JraTSFm8OlPJGisWXLrTTuoUkAWHKvR5YI5FyZSTe5qOdFDFb6HnUbSRquQEac6GGihQAAjNrfXj5jEkaOua/a4U7BctyTYcPvpTFHm2a5m6eZcSY/smbKG50zwxgqDYksBr+dbSZAFvbRgfCgVgBuL+utB5owFJt6wPhUciRDK4uvbUXoxzRlG7jUMjrZZRdOYo7GIsBvbcB+ZoNNFZTuYG4/wDKLxR9kaZiQo/9rZzRlW3+x+Upk3pEp/8AqoPR/wCBie2p+Ee99KOyFoY8WI4vlVaxCGaOP/EjtObDdSgYmKW/GM3tS/hyeHm8jiIx32J0ZrGsHh1k2jYePK7957vyryN+A3jWBwiaRCBXI+Jm41kznJe+W+l6w2FbFCCWFmtn9R81COfXs9k3uCvL2PyijHtSxBV63qbCrbK/vcVvvt1r0e/2npOe3LLapsLPiTEWmDg5C24UDBjTK1/V2ZXSlklay5HHfvHm8l7FztII9eRvUWIXsztpMltL/EK8mxo12ijIeoIsXI0UsIypKBmBXuNZYZ3mlv62XKoH51HmxjwSAdvMmcHpasPHDfZQR5FLbzz/AOBTI6kMDYg+3qiKSxNgBX//xAAqEAEAAgEDAgYDAQADAQAAAAABABEhMUFRYXEQQIGRwfChsdEwUHCA4f/aAAgBAQABPyF0CkLVfPmgUhSJ/wBn2cw1z7Jjpn3RLOfOB6DpM24HHWGgWfYPE1C37DA9FwmbZLnp5sWdYtnGrsJu0IbnA2fHZoQ3OBuwWcYtjGruvNORhZbFwyrPh3hW9cbFtwELVTq6/X+xtdejr9P7Gt653LbkoWW5csq35doYDzLgY00+JjC0JuehMnX44dpmXd/2vm0mJd3/AGvm0m56Ey9fjl3hTT6mMLAhkPNVJI0Iqv5EyE2HPQ5dXvMaMLe7T+pjRhb3aP1MhNlx0OHV7S5JGhFV/A82glxCkTclTNljT4/jeX6F3B63bpK9C7gdZt0lzMlDT4/jaIJdQtV3fOCiI5ladGi2Tp+ZenRotg6fmKqq5/5MtFyItsynaBWSCkrABICFoAcrDWwITbkcSjXsha1bxlx1JS0O0RrpW/cHLDA6gUe0N9sye7ZKoOM5CVStN8AUzVYhiMpqPkOOsQ6I5B+KhJ8uqr469Ib5wBbNVmN1ehf6Q6qMKqeBtFLHTlpk3l7XBClq28MABcGh016TWv76b+v+dyS8u36pptwdSgj/AOYw/wBj9z7Hln5f6YNgHtu29W4rSG7PLvBXNK3Q2n5dEJKVOKEfX88mLUbGFB0ONY04rAvzzCcnbKtX6n3OmHyhYgmrslR3VJUfwT7PXPtuEJmhdpyvaJKKU2PmZ9DtHqf56Mv3B/EYADsTJ7uZq656Xt6T7Hln5f6ZhcFX7R9SLLd6st8VQg+U1nJfJ4yW4psJcm/4iWFrHA8h1hJttPfZWaZELfCvYn3OmYsjFaGwrxcK41IVOY4HfrPs9c+24S7Q391+oTUI0oGnFFSrINUt2c5zp/nW8RuFWSmh92yDdZ58F4aGWNW0y9naBSt5VX0d6o+Y4Z1eD2mTeYLB8CEODB0VXmCoUK3Nlb+GUAXTfo3I5OTvwMRDpkbA4GxLxqRequ9o5mxbWFbzKrYaGqtreYKhraaVtE+YhfNr3gWMm81d3gtwI5WnWq2hCgM0rN0f7Lq0ilnq18HnFxJns12mz3fDXWRDKdW5dzoniE8gHE55lPzNM9zuY5XcFA7LDQ3PQ5OSXeRaxoxtpOa4yd9gjXVUJfxcWW3tbPF6mYElQciciank6OqmOjWj1miM+PrhmmQIe59dYDlt2SMYuUuutoU2bDwNNCVVAqLW3gcsHsYzat0XlKT7HhG3Sw01C5gaNoKzBvXMxmsTUXa7JHstRPjl+PJ0VwWlsX9JkQDS0NOBdt49reX3gMGhghxKyriqvK2LWOwDlQaQ2hGJAwRrJTGjpZKx3NM7kZgHqSlb9Z063amJnEYJx9bislYjVUKL52uzLG4cVuqNv/BToFAUiefNAoC1Wf/aAAwDAQACAAMAAAAQ8888888888888888888888888888888888888888888888888888888048888888888888REIh888888888888I15F888888888888MtZM8888888888888MM8888888884JFBM9lNt1k088888sRxUdF4tUdA888888oQcEAdYU88888888s8cMscc888888888888888888888888888888888888888888888888888888888888888888888/8QAFxEBAAMAAAAAAAAAAAAAAAAAQSBgcP/aAAgBAwEBPxDBGbdf/8QAFBEBAAAAAAAAAAAAAAAAAAAAgP/aAAgBAgEBPxAAf//EACkQAQACAgIBBAEEAgMAAAAAAAERIQAxQVFhQHGBkRAwobHwUNFwgOH/2gAIAQEAAT8QRe4xJKq+vRe4xJIif8nyMAnqbw+R+/4Aw+R+/wCQMgYRPU36t0wT4xY3a1pKIJdNnNOKCA+hgBQRiDSTm3FBIfRxY3awpKJJdFHDRJHj1KwL0L9YigdqLIygML8OaqwSh74hyfX51VgFr1zDg+8BQO1NlJQCB+DBkHsH79SIHYn3gVZEQfD8DHQKcofXEl1Fxvk2SZBxIPJfANjwKcg4lHkPgOg5VGUPriW6i43y7YMCrIiL6fkJ6BRggdAfXqVI6F+sndtckQeoeOHi8k4YtF0bDLRapxwrjVj80T5MMK4XY/NV+DIOGqRdOwS2WqMjdtckyeoOeDm8UjsH79SgiOkT7wO4ZxIWtsE7DZlgIblv3upU6wPPAB+HxPLZOJweeID8PmOCy8xlgIbln1uoUawncM4MKWmGdjtwAANAH16px5TF0iGkxIV5IIIUNCN6cMcm4jJL4L5mTjIxsIyK+CeJl5xIR5IiIAFINacsceUxdKjtfWIAAiIwiWImkwUiAAJomFTpvnBSJACmyZRe2uMQApVVlVtVdr/kzx3OQABpRcY0lduTILJKD74gchtogD3cOTdOqEErC1ejCLlwZIMiIjG+UQe4JIImMBOByw2jLi2FHLhy2jQ/YrHzk8C172RlUTskxQOgDwkxvznOL+veBj56BTqT1gbHkXkGAuE3wYdjG5n5Ej7xs6QtDtJhByrMjTToFGYR3kyNCRN+gOTcmOnyi5kxSKOWbbDmFSBcRgXBsyJAkzM/gAIYrfN0MsF98AuPMc4B4Fn6XvhgH7ZA/kC+zH/g+FEre8H2MtuihycF+38IUq90e+aBVKkioi5ZF3kjxvsybSfGS0TFLANc28rvGEoRxONfOW5ksk59YB58VVLHfYJivnqiqXOUCTjNtC4DuCsB5HeP3rX+rCT7H8GGroZFjaBLeSmJZpiHQKXz+cwhGsMj/wAMDhjXjoeDwDn4ylKWHAQL8P1+mvBXLRI/u38sPry4jh/ye5xE6q8tDwID2/EKVbDQ9ZsrVqugsOgu8M43AdzLiQ/dOcAsxPRA8hn9T1z+17ZIDJjYsE8qYx3qhIGEtaCT1GJ/BWh5oEOiV4wkJZFUWHRJfKH4M4JmoCyELo9TOAzhfV01ZVAqjz+YwmsKDpywb9n3lwHywwNIPJveGnUihNGBAgbd4Igmn9Jiwt7EQ9kyLY1YQViBC/H4DIMogSEmbnFN+nrEmNrjDvIGqemiE6Q4mIw3efen84TeNDmODqeXbzk/GvwECFwxisSFVUWbV/iVUJMNdrEl5hjxiVoRCx7P9mJpBIxtIleAybjKwIZlbrGXnkiREbXglMEfIQR7zm8uI2wmXLBocTyJrACWb1ixoyqeqkhZk4z5cEQZoggE9omO8fTdSk1q4Jgn9YgRHADNghVaLwsE5xFDzCKZCVLXEVkIQcUg9iOEash4kEppXrIhVjKhBi5ThAkKhJBDNG9YQabtFSDcPIYjhVpCROysA1bvDJhLZ05O6yQKJhBKON4PESLrUpBeBwJPsrhuFmjH0d0BNgcRE2Po5qB4TASvArNiajwLwwua9jCAVaRqj7Wvyy+0/uxApeMIoKSURLAXjAf2Ns/amQcm2wMqwBcFZH8TwIKqSgC4obpPrBUZMxJsfaqnU4ByFZIQOcQHeNHQKARg1pS6xLwuiYZJ+2o9G/MkiTEUqnLhTq1lcL4CX1eDtwDSfATpG8M+TETNRLTvGQoAaCs9GECPOIkKtKRAW3KEuAwyLtVpIQ62VgR4pkLBGpHsxdhfIeAUihxk48JzOjHgmIjdAjOy7TjLqRig2x0wPQh6WPQC6OD/AKFIvcYkhEfXovcYkgAM/9k=;" vertex="1" parent="1">
          <mxGeometry x="687.9" y="378.31999999999994" width="93.68" height="93.68" as="geometry" />
        </mxCell>
        <mxCell id="9DIKxnrTDn-VduJ4_lhs-49" value="" style="shape=datastore;whiteSpace=wrap;html=1;" vertex="1" parent="1">
          <mxGeometry x="60" y="245.73000000000002" width="100" height="81.75" as="geometry" />
        </mxCell>
        <mxCell id="9DIKxnrTDn-VduJ4_lhs-50" value="" style="shape=image;verticalLabelPosition=bottom;labelBackgroundColor=default;verticalAlign=top;aspect=fixed;imageAspect=0;image=https://lttng.org/images/logo-80.png;" vertex="1" parent="1">
          <mxGeometry x="95.45" y="288.90999999999997" width="29.09" height="20" as="geometry" />
        </mxCell>
        <mxCell id="9DIKxnrTDn-VduJ4_lhs-51" value="Otel protobufs serialized&lt;br&gt;CTF files" style="text;html=1;align=center;verticalAlign=middle;resizable=0;points=[];autosize=1;strokeColor=none;" vertex="1" parent="1">
          <mxGeometry x="35" y="327" width="150" height="40" as="geometry" />
        </mxCell>
        <mxCell id="9DIKxnrTDn-VduJ4_lhs-52" value="" style="shape=image;verticalLabelPosition=bottom;labelBackgroundColor=default;verticalAlign=top;aspect=fixed;imageAspect=0;image=https://www.svgrepo.com/download/376344/python.svg;" vertex="1" parent="1">
          <mxGeometry x="250" y="216.79999999999995" width="139.61" height="139.61" as="geometry" />
        </mxCell>
        <mxCell id="9DIKxnrTDn-VduJ4_lhs-53" value="replayer.py" style="text;html=1;align=center;verticalAlign=middle;resizable=0;points=[];autosize=1;strokeColor=none;" vertex="1" parent="1">
          <mxGeometry x="279.81" y="324" width="80" height="30" as="geometry" />
        </mxCell>
        <mxCell id="9DIKxnrTDn-VduJ4_lhs-54" value="" style="shape=image;verticalLabelPosition=bottom;labelBackgroundColor=default;verticalAlign=top;aspect=fixed;imageAspect=0;image=https://grafana.com/docs/loki/latest/logo_and_name.png;" vertex="1" parent="1">
          <mxGeometry x="665" y="72" width="124.19" height="73.32" as="geometry" />
        </mxCell>
      </root>
    </mxGraphModel>
  </diagram>
</mxfile>
